<svg width="896" height="1038" viewBox="0 0 896 1038" class="keymap" xmlns="http://www.w3.org/2000/svg" xmlns:xlink="http://www.w3.org/1999/xlink">
<style>/* inherit to force styles through use tags */
svg path {
    fill: inherit;
}

/* font and background color specifications */
svg.keymap {
    font-family: SFMono-Regular,Consolas,Liberation Mono,Menlo,monospace;
    font-size: 14px;
    font-kerning: normal;
    text-rendering: optimizeLegibility;
    fill: #24292e;
}

/* default key styling */
rect.key {
    fill: #f6f8fa;
}

rect.key, rect.combo {
    stroke: #c9cccf;
    stroke-width: 1;
}

/* default key side styling, only used is draw_key_sides is set */
rect.side {
    filter: brightness(90%);
}

/* color accent for combo boxes */
rect.combo, rect.combo-separate {
    fill: #cdf;
}

/* color accent for held keys */
rect.held, rect.combo.held {
    fill: #fdd;
}

/* color accent for ghost (optional) keys */
rect.ghost, rect.combo.ghost {
    stroke-dasharray: 4, 4;
    stroke-width: 2;
}

text {
    text-anchor: middle;
    dominant-baseline: middle;
}

/* styling for layer labels */
text.label {
    font-weight: bold;
    text-anchor: start;
    stroke: white;
    stroke-width: 4;
    paint-order: stroke;
}

/* styling for optional footer */
text.footer {
    text-anchor: end;
    dominant-baseline: auto;
    stroke: white;
    stroke-width: 4;
    paint-order: stroke;
}

/* styling for combo tap, and key non-tap label text */
text.combo, text.hold, text.shifted, text.left, text.right, text.tl, text.tr, text.bl, text.br {
    font-size: 11px;
}

text.hold, text.bl, text.br {
    text-anchor: middle;
    dominant-baseline: auto;
}

text.shifted, text.tl, text.tr {
    text-anchor: middle;
    dominant-baseline: hanging;
}

text.left, text.tl, text.bl {
    text-anchor: start;
}

text.right, text.tr, text.br {
    text-anchor: end;
}

text.layer-activator {
    text-decoration: underline;
}

/* styling for hold/shifted label text in combo box */
text.combo.hold, text.combo.shifted, text.combo.left, text.combo.right {
    font-size: 8px;
}

/* lighter symbol for transparent keys */
text.trans {
    fill: #7b7e81;
}

/* styling for combo dendrons */
path.combo {
    stroke-width: 1;
    stroke: gray;
    fill: none;
}

/* Start Tabler Icons Cleanup */
/* cannot use height/width with glyphs */
.icon-tabler > path {
    fill: inherit;
    stroke: inherit;
    stroke-width: 2;
}
/* hide tabler's default box */
.icon-tabler > path[stroke="none"][fill="none"] {
    visibility: hidden;
}
/* End Tabler Icons Cleanup */

:root {
  --color-bg: #8ACB88;
  --color-primary: #E4FDE1;
  --color-secondary: #575761;
}

rect.key {
  fill: var(--color-primary);
  stroke-width: 0;
}

rect.combo {
  rx: 50%;
  ry: 50%;
  stroke-width: 0;
  fill: var(--color-secondary);
}

.combo path {
  stroke: var(--color-secondary);
  stroke-dasharray: 4 3;
}

.combo text, .combo {
  color: var(--color-primary);
  fill: var(--color-primary);
}

svg.keymap {
  background: var(--color-bg);
  font-family: Roboto, Arial;
}

.footer {
 display: none;
}

.layer-NUM .combo, .layer-NAV .combo {
  display: none;
}

text.label {
  stroke-width: 0;
  font-size: 24px;
}</style>
<g transform="translate(30, 0)" class="layer-BAS">
<text x="0" y="28" class="label" id="BAS">BAS:</text>
<g transform="translate(0, 56)">
<g transform="translate(30, 120) rotate(-5.0)" class="key keypos-0">
<rect rx="6" ry="6" x="-26" y="-26" width="52" height="52" class="key"/>
<text x="0" y="0" class="key tap">ESC</text>
</g>
<g transform="translate(84, 87) rotate(-5.0)" class="key keypos-1">
<rect rx="6" ry="6" x="-26" y="-26" width="52" height="52" class="key"/>
<text x="0" y="0" class="key tap">Q</text>
</g>
<g transform="translate(143, 44) rotate(-3.0)" class="key keypos-2">
<rect rx="6" ry="6" x="-26" y="-26" width="52" height="52" class="key"/>
<text x="0" y="0" class="key tap">W</text>
</g>
<g transform="translate(208, 28)" class="key keypos-3">
<rect rx="6" ry="6" x="-26" y="-26" width="52" height="52" class="key"/>
<text x="0" y="0" class="key tap">E</text>
</g>
<g transform="translate(264, 42)" class="key keypos-4">
<rect rx="6" ry="6" x="-26" y="-26" width="52" height="52" class="key"/>
<text x="0" y="0" class="key tap">R</text>
</g>
<g transform="translate(320, 48)" class="key keypos-5">
<rect rx="6" ry="6" x="-26" y="-26" width="52" height="52" class="key"/>
<text x="0" y="0" class="key tap">T</text>
</g>
<g transform="translate(516, 48)" class="key keypos-6">
<rect rx="6" ry="6" x="-26" y="-26" width="52" height="52" class="key"/>
<text x="0" y="0" class="key tap">Y</text>
</g>
<g transform="translate(572, 42)" class="key keypos-7">
<rect rx="6" ry="6" x="-26" y="-26" width="52" height="52" class="key"/>
<text x="0" y="0" class="key tap">U</text>
</g>
<g transform="translate(628, 28)" class="key keypos-8">
<rect rx="6" ry="6" x="-26" y="-26" width="52" height="52" class="key"/>
<text x="0" y="0" class="key tap">I</text>
</g>
<g transform="translate(693, 44) rotate(3.0)" class="key keypos-9">
<rect rx="6" ry="6" x="-26" y="-26" width="52" height="52" class="key"/>
<text x="0" y="0" class="key tap">O</text>
</g>
<g transform="translate(752, 86) rotate(5.0)" class="key keypos-10">
<rect rx="6" ry="6" x="-26" y="-26" width="52" height="52" class="key"/>
<text x="0" y="0" class="key tap">P</text>
</g>
<g transform="translate(805, 119) rotate(5.0)" class="key keypos-11">
<rect rx="6" ry="6" x="-26" y="-26" width="52" height="52" class="key"/>
<text x="0" y="0" class="key tap"><tspan style="font-size: 78%">BACKSPACE</tspan></text>
</g>
<g transform="translate(35, 176) rotate(-5.0)" class="key keypos-12">
<rect rx="6" ry="6" x="-26" y="-26" width="52" height="52" class="key"/>
<text x="0" y="0" class="key tap">TAB</text>
</g>
<g transform="translate(89, 143) rotate(-5.0)" class="key keypos-13">
<rect rx="6" ry="6" x="-26" y="-26" width="52" height="52" class="key"/>
<text x="0" y="0" class="key tap">A</text>
</g>
<g transform="translate(146, 100) rotate(-3.0)" class="key keypos-14">
<rect rx="6" ry="6" x="-26" y="-26" width="52" height="52" class="key"/>
<text x="0" y="0" class="key tap">S</text>
</g>
<g transform="translate(208, 84)" class="key keypos-15">
<rect rx="6" ry="6" x="-26" y="-26" width="52" height="52" class="key"/>
<text x="0" y="0" class="key tap">D</text>
</g>
<g transform="translate(264, 98)" class="key keypos-16">
<rect rx="6" ry="6" x="-26" y="-26" width="52" height="52" class="key"/>
<text x="0" y="0" class="key tap">F</text>
</g>
<g transform="translate(320, 104)" class="key keypos-17">
<rect rx="6" ry="6" x="-26" y="-26" width="52" height="52" class="key"/>
<text x="0" y="0" class="key tap">G</text>
</g>
<g transform="translate(516, 104)" class="key keypos-18">
<rect rx="6" ry="6" x="-26" y="-26" width="52" height="52" class="key"/>
<text x="0" y="0" class="key tap">H</text>
</g>
<g transform="translate(572, 98)" class="key keypos-19">
<rect rx="6" ry="6" x="-26" y="-26" width="52" height="52" class="key"/>
<text x="0" y="0" class="key tap">J</text>
</g>
<g transform="translate(628, 84)" class="key keypos-20">
<rect rx="6" ry="6" x="-26" y="-26" width="52" height="52" class="key"/>
<text x="0" y="0" class="key tap">K</text>
</g>
<g transform="translate(690, 100) rotate(3.0)" class="key keypos-21">
<rect rx="6" ry="6" x="-26" y="-26" width="52" height="52" class="key"/>
<text x="0" y="0" class="key tap">L</text>
</g>
<g transform="translate(747, 142) rotate(5.0)" class="key keypos-22">
<rect rx="6" ry="6" x="-26" y="-26" width="52" height="52" class="key"/>
<text x="0" y="0" class="key tap">;</text>
</g>
<g transform="translate(800, 174) rotate(5.0)" class="key keypos-23">
<rect rx="6" ry="6" x="-26" y="-26" width="52" height="52" class="key"/>
<text x="0" y="0" class="key tap">RET</text>
</g>
<g transform="translate(93, 199) rotate(-5.0)" class="key keypos-24">
<rect rx="6" ry="6" x="-26" y="-26" width="52" height="52" class="key"/>
<text x="0" y="0" class="key tap">Z</text>
</g>
<g transform="translate(149, 156) rotate(-3.0)" class="key keypos-25">
<rect rx="6" ry="6" x="-26" y="-26" width="52" height="52" class="key"/>
<text x="0" y="0" class="key tap">X</text>
<text x="0" y="24" class="key hold">RALT</text>
</g>
<g transform="translate(208, 140)" class="key keypos-26">
<rect rx="6" ry="6" x="-26" y="-26" width="52" height="52" class="key"/>
<text x="0" y="0" class="key tap">C</text>
<text x="0" y="24" class="key hold">LALT</text>
</g>
<g transform="translate(264, 154)" class="key keypos-27">
<rect rx="6" ry="6" x="-26" y="-26" width="52" height="52" class="key"/>
<text x="0" y="0" class="key tap">V</text>
<text x="0" y="24" class="key hold">LCTRL</text>
</g>
<g transform="translate(320, 160)" class="key keypos-28">
<rect rx="6" ry="6" x="-26" y="-26" width="52" height="52" class="key"/>
<text x="0" y="0" class="key tap">B</text>
<text x="0" y="24" class="key hold">LGUI</text>
</g>
<g transform="translate(516, 160)" class="key keypos-29">
<rect rx="6" ry="6" x="-26" y="-26" width="52" height="52" class="key"/>
<text x="0" y="0" class="key tap">N</text>
<text x="0" y="24" class="key hold">LGUI</text>
</g>
<g transform="translate(572, 154)" class="key keypos-30">
<rect rx="6" ry="6" x="-26" y="-26" width="52" height="52" class="key"/>
<text x="0" y="0" class="key tap">M</text>
<text x="0" y="24" class="key hold">LCTRL</text>
</g>
<g transform="translate(628, 140)" class="key keypos-31">
<rect rx="6" ry="6" x="-26" y="-26" width="52" height="52" class="key"/>
<text x="0" y="0" class="key tap">,</text>
<text x="0" y="24" class="key hold">LALT</text>
</g>
<g transform="translate(687, 156) rotate(3.0)" class="key keypos-32">
<rect rx="6" ry="6" x="-26" y="-26" width="52" height="52" class="key"/>
<text x="0" y="0" class="key tap">.</text>
<text x="0" y="24" class="key hold">RALT</text>
</g>
<g transform="translate(742, 197) rotate(5.0)" class="key keypos-33">
<rect rx="6" ry="6" x="-26" y="-26" width="52" height="52" class="key"/>
<text x="0" y="0" class="key tap">&#x27;</text>
</g>
<g transform="translate(250, 224)" class="key keypos-34">
<rect rx="6" ry="6" x="-26" y="-26" width="52" height="52" class="key"/>
<text x="0" y="0" class="key tap">LSHIFT</text>
</g>
<g transform="translate(311, 228) rotate(6.0)" class="key keypos-35">
<rect rx="6" ry="6" x="-26" y="-26" width="52" height="52" class="key"/>
<text x="0" y="0" class="key tap">SPACE</text>
</g>
<g transform="translate(371, 238) rotate(12.0)" class="key keypos-36">
<rect rx="6" ry="6" x="-26" y="-26" width="52" height="52" class="key"/>
<a href="#NUM">
<text x="0" y="0" class="key tap layer-activator">NUM</text>
</a></g>
<g transform="translate(464, 238) rotate(-12.0)" class="key keypos-37">
<rect rx="6" ry="6" x="-26" y="-26" width="52" height="52" class="key"/>
<a href="#NAV">
<text x="0" y="0" class="key tap layer-activator">NAV</text>
</a></g>
<g transform="translate(525, 228) rotate(-6.0)" class="key keypos-38">
<rect rx="6" ry="6" x="-26" y="-26" width="52" height="52" class="key"/>
<text x="0" y="0" class="key tap">RSHFT</text>
</g>
<g transform="translate(586, 224)" class="key keypos-39">
<rect rx="6" ry="6" x="-26" y="-26" width="52" height="52" class="key"/>
<text x="0" y="0" class="key tap">RET</text>
</g>
<g class="combo combopos-0">
<rect rx="6" ry="6" x="195" y="43" width="26" height="26" class="combo"/>
<text x="208" y="56" class="combo tap">@</text>
</g>
<g class="combo combopos-1">
<rect rx="6" ry="6" x="131" y="59" width="26" height="26" class="combo"/>
<text x="144" y="72" class="combo tap">`</text>
</g>
<g class="combo combopos-2">
<rect rx="6" ry="6" x="162" y="23" width="26" height="26" class="combo"/>
<text x="175" y="36" class="combo tap">ESC</text>
</g>
<g class="combo combopos-3">
<rect rx="6" ry="6" x="223" y="22" width="26" height="26" class="combo"/>
<text x="236" y="35" class="combo tap">#</text>
</g>
<g class="combo combopos-4">
<rect rx="6" ry="6" x="195" y="99" width="26" height="26" class="combo"/>
<text x="208" y="112" class="combo tap">\</text>
</g>
<g class="combo combopos-5">
<rect rx="6" ry="6" x="165" y="135" width="26" height="26" class="combo"/>
<text x="178" y="148" class="combo tap">Ctl+C</text>
</g>
<g class="combo combopos-6">
<rect rx="6" ry="6" x="223" y="134" width="26" height="26" class="combo"/>
<text x="236" y="147" class="combo tap">Ctl+V</text>
</g>
<g class="combo combopos-7">
<path d="M206,155 l39,-1" class="combo"/>
<path d="M206,155 l-39,1" class="combo"/>
<rect rx="6" ry="6" x="193" y="142" width="26" height="26" class="combo"/>
<text x="206" y="155" class="combo tap">Ctl+X</text>
</g>
<g class="combo combopos-8">
<rect rx="6" ry="6" x="251" y="113" width="26" height="26" class="combo"/>
<text x="264" y="126" class="combo tap">=</text>
</g>
<g class="combo combopos-9">
<rect rx="6" ry="6" x="251" y="57" width="26" height="26" class="combo"/>
<text x="264" y="70" class="combo tap">$</text>
</g>
<g class="combo combopos-10">
<rect rx="6" ry="6" x="307" y="63" width="26" height="26" class="combo"/>
<text x="320" y="76" class="combo tap">%</text>
</g>
<g class="combo combopos-11">
<rect rx="6" ry="6" x="307" y="119" width="26" height="26" class="combo"/>
<text x="320" y="132" class="combo tap">~</text>
</g>
<g class="combo combopos-12">
<rect rx="6" ry="6" x="503" y="63" width="26" height="26" class="combo"/>
<text x="516" y="76" class="combo tap">^</text>
</g>
<g class="combo combopos-13">
<rect rx="6" ry="6" x="503" y="119" width="26" height="26" class="combo"/>
<text x="516" y="132" class="combo tap">_</text>
</g>
<g class="combo combopos-14">
<rect rx="6" ry="6" x="559" y="57" width="26" height="26" class="combo"/>
<text x="572" y="70" class="combo tap">+</text>
</g>
<g class="combo combopos-15">
<rect rx="6" ry="6" x="559" y="113" width="26" height="26" class="combo"/>
<text x="572" y="126" class="combo tap">-</text>
</g>
<g class="combo combopos-16">
<rect rx="6" ry="6" x="647" y="23" width="26" height="26" class="combo"/>
<text x="660" y="36" class="combo tap"><tspan style="font-size: 78%">BACKSPACE</tspan></text>
</g>
<g class="combo combopos-17">
<rect rx="6" ry="6" x="615" y="43" width="26" height="26" class="combo"/>
<text x="628" y="56" class="combo tap">*</text>
</g>
<g class="combo combopos-18">
<rect rx="6" ry="6" x="615" y="99" width="26" height="26" class="combo"/>
<text x="628" y="112" class="combo tap">/</text>
</g>
<g class="combo combopos-19">
<rect rx="6" ry="6" x="678" y="59" width="26" height="26" class="combo"/>
<text x="691" y="72" class="combo tap">|</text>
</g>
<g class="combo combopos-20">
<rect rx="6" ry="6" x="587" y="78" width="26" height="26" class="combo"/>
<text x="600" y="91" class="combo tap">(</text>
</g>
<g class="combo combopos-21">
<rect rx="6" ry="6" x="646" y="79" width="26" height="26" class="combo"/>
<text x="659" y="92" class="combo tap">)</text>
</g>
<g class="combo combopos-22">
<rect rx="6" ry="6" x="644" y="135" width="26" height="26" class="combo"/>
<text x="657" y="148" class="combo tap">]</text>
</g>
<g class="combo combopos-23">
<rect rx="6" ry="6" x="587" y="134" width="26" height="26" class="combo"/>
<text x="600" y="147" class="combo tap">[</text>
</g>
<g class="combo combopos-24">
<rect rx="6" ry="6" x="223" y="78" width="26" height="26" class="combo"/>
<text x="236" y="91" class="combo tap">!</text>
</g>
<g class="combo combopos-25">
<rect rx="6" ry="6" x="164" y="79" width="26" height="26" class="combo"/>
<text x="177" y="92" class="combo tap">TAB</text>
</g>
<g class="combo combopos-26">
<rect rx="6" ry="6" x="587" y="22" width="26" height="26" class="combo"/>
<text x="600" y="35" class="combo tap">&amp;</text>
</g>
</g>
</g>
<g transform="translate(30, 327)" class="layer-NUM">
<text x="0" y="28" class="label" id="NUM">NUM:</text>
<g transform="translate(0, 56)">
<g transform="translate(30, 120) rotate(-5.0)" class="key trans keypos-0">
<rect rx="6" ry="6" x="-26" y="-26" width="52" height="52" class="key trans"/>
<text x="0" y="0" class="key trans tap">▽</text>
</g>
<g transform="translate(84, 87) rotate(-5.0)" class="key keypos-1">
<rect rx="6" ry="6" x="-26" y="-26" width="52" height="52" class="key"/>
<text x="0" y="0" class="key tap">F10</text>
</g>
<g transform="translate(143, 44) rotate(-3.0)" class="key keypos-2">
<rect rx="6" ry="6" x="-26" y="-26" width="52" height="52" class="key"/>
<text x="0" y="0" class="key tap">F9</text>
</g>
<g transform="translate(208, 28)" class="key keypos-3">
<rect rx="6" ry="6" x="-26" y="-26" width="52" height="52" class="key"/>
<text x="0" y="0" class="key tap">F8</text>
</g>
<g transform="translate(264, 42)" class="key keypos-4">
<rect rx="6" ry="6" x="-26" y="-26" width="52" height="52" class="key"/>
<text x="0" y="0" class="key tap">F7</text>
</g>
<g transform="translate(320, 48)" class="key keypos-5">
<rect rx="6" ry="6" x="-26" y="-26" width="52" height="52" class="key"/>
<text x="0" y="0" class="key tap">
<tspan x="0" dy="-0.6em">Sft+Gui</tspan><tspan x="0" dy="1.2em">+S</tspan>
</text>
</g>
<g transform="translate(516, 48)" class="key keypos-6">
<rect rx="6" ry="6" x="-26" y="-26" width="52" height="52" class="key"/>
<text x="0" y="0" class="key tap">,</text>
</g>
<g transform="translate(572, 42)" class="key keypos-7">
<rect rx="6" ry="6" x="-26" y="-26" width="52" height="52" class="key"/>
<text x="0" y="0" class="key tap">7</text>
</g>
<g transform="translate(628, 28)" class="key keypos-8">
<rect rx="6" ry="6" x="-26" y="-26" width="52" height="52" class="key"/>
<text x="0" y="0" class="key tap">8</text>
</g>
<g transform="translate(693, 44) rotate(3.0)" class="key keypos-9">
<rect rx="6" ry="6" x="-26" y="-26" width="52" height="52" class="key"/>
<text x="0" y="0" class="key tap">9</text>
</g>
<g transform="translate(752, 86) rotate(5.0)" class="key keypos-10">
<rect rx="6" ry="6" x="-26" y="-26" width="52" height="52" class="key"/>
</g>
<g transform="translate(805, 119) rotate(5.0)" class="key trans keypos-11">
<rect rx="6" ry="6" x="-26" y="-26" width="52" height="52" class="key trans"/>
<text x="0" y="0" class="key trans tap">▽</text>
</g>
<g transform="translate(35, 176) rotate(-5.0)" class="key trans keypos-12">
<rect rx="6" ry="6" x="-26" y="-26" width="52" height="52" class="key trans"/>
<text x="0" y="0" class="key trans tap">▽</text>
</g>
<g transform="translate(89, 143) rotate(-5.0)" class="key keypos-13">
<rect rx="6" ry="6" x="-26" y="-26" width="52" height="52" class="key"/>
<text x="0" y="0" class="key tap">F11</text>
</g>
<g transform="translate(146, 100) rotate(-3.0)" class="key keypos-14">
<rect rx="6" ry="6" x="-26" y="-26" width="52" height="52" class="key"/>
<text x="0" y="0" class="key tap">F6</text>
</g>
<g transform="translate(208, 84)" class="key keypos-15">
<rect rx="6" ry="6" x="-26" y="-26" width="52" height="52" class="key"/>
<text x="0" y="0" class="key tap">F5</text>
</g>
<g transform="translate(264, 98)" class="key keypos-16">
<rect rx="6" ry="6" x="-26" y="-26" width="52" height="52" class="key"/>
<text x="0" y="0" class="key tap">F4</text>
</g>
<g transform="translate(320, 104)" class="key keypos-17">
<rect rx="6" ry="6" x="-26" y="-26" width="52" height="52" class="key"/>
<text x="0" y="0" class="key tap">
<tspan x="0" dy="-0.6em" style="font-size: 64%">Alt+</tspan><tspan x="0" dy="1.2em" style="font-size: 64%">PRINTSCREEN</tspan>
</text>
</g>
<g transform="translate(516, 104)" class="key keypos-18">
<rect rx="6" ry="6" x="-26" y="-26" width="52" height="52" class="key"/>
<text x="0" y="0" class="key tap">.</text>
</g>
<g transform="translate(572, 98)" class="key keypos-19">
<rect rx="6" ry="6" x="-26" y="-26" width="52" height="52" class="key"/>
<text x="0" y="0" class="key tap">4</text>
</g>
<g transform="translate(628, 84)" class="key keypos-20">
<rect rx="6" ry="6" x="-26" y="-26" width="52" height="52" class="key"/>
<text x="0" y="0" class="key tap">5</text>
</g>
<g transform="translate(690, 100) rotate(3.0)" class="key keypos-21">
<rect rx="6" ry="6" x="-26" y="-26" width="52" height="52" class="key"/>
<text x="0" y="0" class="key tap">6</text>
</g>
<g transform="translate(747, 142) rotate(5.0)" class="key trans keypos-22">
<rect rx="6" ry="6" x="-26" y="-26" width="52" height="52" class="key trans"/>
<text x="0" y="0" class="key trans tap">▽</text>
</g>
<g transform="translate(800, 174) rotate(5.0)" class="key trans keypos-23">
<rect rx="6" ry="6" x="-26" y="-26" width="52" height="52" class="key trans"/>
<text x="0" y="0" class="key trans tap">▽</text>
</g>
<g transform="translate(93, 199) rotate(-5.0)" class="key keypos-24">
<rect rx="6" ry="6" x="-26" y="-26" width="52" height="52" class="key"/>
<text x="0" y="0" class="key tap">F12</text>
</g>
<g transform="translate(149, 156) rotate(-3.0)" class="key keypos-25">
<rect rx="6" ry="6" x="-26" y="-26" width="52" height="52" class="key"/>
<text x="0" y="0" class="key tap">F3</text>
<text x="0" y="24" class="key hold">RALT</text>
</g>
<g transform="translate(208, 140)" class="key keypos-26">
<rect rx="6" ry="6" x="-26" y="-26" width="52" height="52" class="key"/>
<text x="0" y="0" class="key tap">F2</text>
<text x="0" y="24" class="key hold">LALT</text>
</g>
<g transform="translate(264, 154)" class="key keypos-27">
<rect rx="6" ry="6" x="-26" y="-26" width="52" height="52" class="key"/>
<text x="0" y="0" class="key tap">F1</text>
<text x="0" y="24" class="key hold">LCTRL</text>
</g>
<g transform="translate(320, 160)" class="key keypos-28">
<rect rx="6" ry="6" x="-26" y="-26" width="52" height="52" class="key"/>
<text x="0" y="0" class="key tap">
<tspan x="0" dy="-0.6em">LEFT</tspan><tspan x="0" dy="1.2em">GUI</tspan>
</text>
</g>
<g transform="translate(516, 160)" class="key keypos-29">
<rect rx="6" ry="6" x="-26" y="-26" width="52" height="52" class="key"/>
<text x="0" y="0" class="key tap">0</text>
<text x="0" y="24" class="key hold">LGUI</text>
</g>
<g transform="translate(572, 154)" class="key keypos-30">
<rect rx="6" ry="6" x="-26" y="-26" width="52" height="52" class="key"/>
<text x="0" y="0" class="key tap">1</text>
<text x="0" y="24" class="key hold">LCTRL</text>
</g>
<g transform="translate(628, 140)" class="key keypos-31">
<rect rx="6" ry="6" x="-26" y="-26" width="52" height="52" class="key"/>
<text x="0" y="0" class="key tap">2</text>
<text x="0" y="24" class="key hold">LALT</text>
</g>
<g transform="translate(687, 156) rotate(3.0)" class="key keypos-32">
<rect rx="6" ry="6" x="-26" y="-26" width="52" height="52" class="key"/>
<text x="0" y="0" class="key tap">3</text>
<text x="0" y="24" class="key hold">RALT</text>
</g>
<g transform="translate(742, 197) rotate(5.0)" class="key trans keypos-33">
<rect rx="6" ry="6" x="-26" y="-26" width="52" height="52" class="key trans"/>
<text x="0" y="0" class="key trans tap">▽</text>
</g>
<g transform="translate(250, 224)" class="key trans keypos-34">
<rect rx="6" ry="6" x="-26" y="-26" width="52" height="52" class="key trans"/>
<text x="0" y="0" class="key trans tap">▽</text>
</g>
<g transform="translate(311, 228) rotate(6.0)" class="key trans keypos-35">
<rect rx="6" ry="6" x="-26" y="-26" width="52" height="52" class="key trans"/>
<text x="0" y="0" class="key trans tap">▽</text>
</g>
<g transform="translate(371, 238) rotate(12.0)" class="key held keypos-36">
<rect rx="6" ry="6" x="-26" y="-26" width="52" height="52" class="key held"/>
</g>
<g transform="translate(464, 238) rotate(-12.0)" class="key trans keypos-37">
<rect rx="6" ry="6" x="-26" y="-26" width="52" height="52" class="key trans"/>
<text x="0" y="0" class="key trans tap">▽</text>
</g>
<g transform="translate(525, 228) rotate(-6.0)" class="key trans keypos-38">
<rect rx="6" ry="6" x="-26" y="-26" width="52" height="52" class="key trans"/>
<text x="0" y="0" class="key trans tap">▽</text>
</g>
<g transform="translate(586, 224)" class="key trans keypos-39">
<rect rx="6" ry="6" x="-26" y="-26" width="52" height="52" class="key trans"/>
<text x="0" y="0" class="key trans tap">▽</text>
</g>
<g class="combo combopos-0">
<rect rx="6" ry="6" x="195" y="43" width="26" height="26" class="combo"/>
<text x="208" y="56" class="combo tap">@</text>
</g>
<g class="combo combopos-1">
<rect rx="6" ry="6" x="131" y="59" width="26" height="26" class="combo"/>
<text x="144" y="72" class="combo tap">`</text>
</g>
<g class="combo combopos-2">
<rect rx="6" ry="6" x="162" y="23" width="26" height="26" class="combo"/>
<text x="175" y="36" class="combo tap">ESC</text>
</g>
<g class="combo combopos-3">
<rect rx="6" ry="6" x="223" y="22" width="26" height="26" class="combo"/>
<text x="236" y="35" class="combo tap">#</text>
</g>
<g class="combo combopos-4">
<rect rx="6" ry="6" x="195" y="99" width="26" height="26" class="combo"/>
<text x="208" y="112" class="combo tap">\</text>
</g>
<g class="combo combopos-5">
<rect rx="6" ry="6" x="165" y="135" width="26" height="26" class="combo"/>
<text x="178" y="148" class="combo tap">Ctl+C</text>
</g>
<g class="combo combopos-6">
<rect rx="6" ry="6" x="223" y="134" width="26" height="26" class="combo"/>
<text x="236" y="147" class="combo tap">Ctl+V</text>
</g>
<g class="combo combopos-7">
<path d="M206,155 l39,-1" class="combo"/>
<path d="M206,155 l-39,1" class="combo"/>
<rect rx="6" ry="6" x="193" y="142" width="26" height="26" class="combo"/>
<text x="206" y="155" class="combo tap">Ctl+X</text>
</g>
<g class="combo combopos-8">
<rect rx="6" ry="6" x="251" y="113" width="26" height="26" class="combo"/>
<text x="264" y="126" class="combo tap">=</text>
</g>
<g class="combo combopos-9">
<rect rx="6" ry="6" x="251" y="57" width="26" height="26" class="combo"/>
<text x="264" y="70" class="combo tap">$</text>
</g>
<g class="combo combopos-10">
<rect rx="6" ry="6" x="307" y="63" width="26" height="26" class="combo"/>
<text x="320" y="76" class="combo tap">%</text>
</g>
<g class="combo combopos-11">
<rect rx="6" ry="6" x="307" y="119" width="26" height="26" class="combo"/>
<text x="320" y="132" class="combo tap">~</text>
</g>
<g class="combo combopos-12">
<rect rx="6" ry="6" x="503" y="63" width="26" height="26" class="combo"/>
<text x="516" y="76" class="combo tap">^</text>
</g>
<g class="combo combopos-13">
<rect rx="6" ry="6" x="503" y="119" width="26" height="26" class="combo"/>
<text x="516" y="132" class="combo tap">_</text>
</g>
<g class="combo combopos-14">
<rect rx="6" ry="6" x="559" y="57" width="26" height="26" class="combo"/>
<text x="572" y="70" class="combo tap">+</text>
</g>
<g class="combo combopos-15">
<rect rx="6" ry="6" x="559" y="113" width="26" height="26" class="combo"/>
<text x="572" y="126" class="combo tap">-</text>
</g>
<g class="combo combopos-16">
<rect rx="6" ry="6" x="647" y="23" width="26" height="26" class="combo"/>
<text x="660" y="36" class="combo tap"><tspan style="font-size: 78%">BACKSPACE</tspan></text>
</g>
<g class="combo combopos-17">
<rect rx="6" ry="6" x="615" y="43" width="26" height="26" class="combo"/>
<text x="628" y="56" class="combo tap">*</text>
</g>
<g class="combo combopos-18">
<rect rx="6" ry="6" x="615" y="99" width="26" height="26" class="combo"/>
<text x="628" y="112" class="combo tap">/</text>
</g>
<g class="combo combopos-19">
<rect rx="6" ry="6" x="678" y="59" width="26" height="26" class="combo"/>
<text x="691" y="72" class="combo tap">|</text>
</g>
<g class="combo combopos-20">
<rect rx="6" ry="6" x="587" y="78" width="26" height="26" class="combo"/>
<text x="600" y="91" class="combo tap">(</text>
</g>
<g class="combo combopos-21">
<rect rx="6" ry="6" x="646" y="79" width="26" height="26" class="combo"/>
<text x="659" y="92" class="combo tap">)</text>
</g>
<g class="combo combopos-22">
<rect rx="6" ry="6" x="644" y="135" width="26" height="26" class="combo"/>
<text x="657" y="148" class="combo tap">]</text>
</g>
<g class="combo combopos-23">
<rect rx="6" ry="6" x="587" y="134" width="26" height="26" class="combo"/>
<text x="600" y="147" class="combo tap">[</text>
</g>
<g class="combo combopos-24">
<rect rx="6" ry="6" x="223" y="78" width="26" height="26" class="combo"/>
<text x="236" y="91" class="combo tap">!</text>
</g>
<g class="combo combopos-25">
<rect rx="6" ry="6" x="164" y="79" width="26" height="26" class="combo"/>
<text x="177" y="92" class="combo tap">TAB</text>
</g>
<g class="combo combopos-26">
<rect rx="6" ry="6" x="587" y="22" width="26" height="26" class="combo"/>
<text x="600" y="35" class="combo tap">&amp;</text>
</g>
</g>
</g>
<g transform="translate(30, 655)" class="layer-NAV">
<text x="0" y="28" class="label" id="NAV">NAV:</text>
<g transform="translate(0, 56)">
<g transform="translate(30, 120) rotate(-5.0)" class="key trans keypos-0">
<rect rx="6" ry="6" x="-26" y="-26" width="52" height="52" class="key trans"/>
<text x="0" y="0" class="key trans tap">▽</text>
</g>
<g transform="translate(84, 87) rotate(-5.0)" class="key keypos-1">
<rect rx="6" ry="6" x="-26" y="-26" width="52" height="52" class="key"/>
</g>
<g transform="translate(143, 44) rotate(-3.0)" class="key keypos-2">
<rect rx="6" ry="6" x="-26" y="-26" width="52" height="52" class="key"/>
<text x="0" y="0" class="key tap">
<tspan x="0" dy="-0.6em">Ctl+Gui</tspan><tspan x="0" dy="1.2em">+LEFT</tspan>
</text>
</g>
<g transform="translate(208, 28)" class="key keypos-3">
<rect rx="6" ry="6" x="-26" y="-26" width="52" height="52" class="key"/>
<text x="0" y="0" class="key tap">
<tspan x="0" dy="-0.6em">Ctl+Gui</tspan><tspan x="0" dy="1.2em">+F4</tspan>
</text>
</g>
<g transform="translate(264, 42)" class="key keypos-4">
<rect rx="6" ry="6" x="-26" y="-26" width="52" height="52" class="key"/>
<text x="0" y="0" class="key tap">
<tspan x="0" dy="-0.6em">Ctl+Gui</tspan><tspan x="0" dy="1.2em">+D</tspan>
</text>
</g>
<g transform="translate(320, 48)" class="key keypos-5">
<rect rx="6" ry="6" x="-26" y="-26" width="52" height="52" class="key"/>
<text x="0" y="0" class="key tap">
<tspan x="0" dy="-0.6em">Gui+Ctl</tspan><tspan x="0" dy="1.2em">+RIGHT</tspan>
</text>
</g>
<g transform="translate(516, 48)" class="key keypos-6">
<rect rx="6" ry="6" x="-26" y="-26" width="52" height="52" class="key"/>
<text x="0" y="0" class="key tap">HOME</text>
</g>
<g transform="translate(572, 42)" class="key keypos-7">
<rect rx="6" ry="6" x="-26" y="-26" width="52" height="52" class="key"/>
<text x="0" y="0" class="key tap">
<tspan x="0" dy="-0.6em">PG</tspan><tspan x="0" dy="1.2em">DN</tspan>
</text>
</g>
<g transform="translate(628, 28)" class="key keypos-8">
<rect rx="6" ry="6" x="-26" y="-26" width="52" height="52" class="key"/>
<text x="0" y="0" class="key tap">
<tspan x="0" dy="-0.6em">PG</tspan><tspan x="0" dy="1.2em">UP</tspan>
</text>
</g>
<g transform="translate(693, 44) rotate(3.0)" class="key keypos-9">
<rect rx="6" ry="6" x="-26" y="-26" width="52" height="52" class="key"/>
<text x="0" y="0" class="key tap">END</text>
</g>
<g transform="translate(752, 86) rotate(5.0)" class="key keypos-10">
<rect rx="6" ry="6" x="-26" y="-26" width="52" height="52" class="key"/>
<text x="0" y="0" class="key tap">
<tspan x="0" dy="-0.6em">VOL</tspan><tspan x="0" dy="1.2em">UP</tspan>
</text>
</g>
<g transform="translate(805, 119) rotate(5.0)" class="key trans keypos-11">
<rect rx="6" ry="6" x="-26" y="-26" width="52" height="52" class="key trans"/>
<text x="0" y="0" class="key trans tap">▽</text>
</g>
<g transform="translate(35, 176) rotate(-5.0)" class="key keypos-12">
<rect rx="6" ry="6" x="-26" y="-26" width="52" height="52" class="key"/>
<text x="0" y="0" class="key tap">Gui+TAB</text>
</g>
<g transform="translate(89, 143) rotate(-5.0)" class="key keypos-13">
<rect rx="6" ry="6" x="-26" y="-26" width="52" height="52" class="key"/>
</g>
<g transform="translate(146, 100) rotate(-3.0)" class="key keypos-14">
<rect rx="6" ry="6" x="-26" y="-26" width="52" height="52" class="key"/>
<text x="0" y="0" class="key tap">
<tspan x="0" dy="-0.6em">Gui+</tspan><tspan x="0" dy="1.2em">LEFT</tspan>
</text>
</g>
<g transform="translate(208, 84)" class="key keypos-15">
<rect rx="6" ry="6" x="-26" y="-26" width="52" height="52" class="key"/>
<text x="0" y="0" class="key tap">Gui+UP</text>
</g>
<g transform="translate(264, 98)" class="key keypos-16">
<rect rx="6" ry="6" x="-26" y="-26" width="52" height="52" class="key"/>
<text x="0" y="0" class="key tap">
<tspan x="0" dy="-0.6em">Gui+</tspan><tspan x="0" dy="1.2em">DOWN</tspan>
</text>
</g>
<g transform="translate(320, 104)" class="key keypos-17">
<rect rx="6" ry="6" x="-26" y="-26" width="52" height="52" class="key"/>
<text x="0" y="0" class="key tap">
<tspan x="0" dy="-0.6em">Gui+</tspan><tspan x="0" dy="1.2em">RIGHT</tspan>
</text>
</g>
<g transform="translate(516, 104)" class="key keypos-18">
<rect rx="6" ry="6" x="-26" y="-26" width="52" height="52" class="key"/>
<text x="0" y="0" class="key tap">LEFT</text>
</g>
<g transform="translate(572, 98)" class="key keypos-19">
<rect rx="6" ry="6" x="-26" y="-26" width="52" height="52" class="key"/>
<text x="0" y="0" class="key tap">DOWN</text>
</g>
<g transform="translate(628, 84)" class="key keypos-20">
<rect rx="6" ry="6" x="-26" y="-26" width="52" height="52" class="key"/>
<text x="0" y="0" class="key tap">UP</text>
</g>
<g transform="translate(690, 100) rotate(3.0)" class="key keypos-21">
<rect rx="6" ry="6" x="-26" y="-26" width="52" height="52" class="key"/>
<text x="0" y="0" class="key tap">RIGHT</text>
</g>
<g transform="translate(747, 142) rotate(5.0)" class="key keypos-22">
<rect rx="6" ry="6" x="-26" y="-26" width="52" height="52" class="key"/>
<text x="0" y="0" class="key tap">MUTE</text>
</g>
<g transform="translate(800, 174) rotate(5.0)" class="key trans keypos-23">
<rect rx="6" ry="6" x="-26" y="-26" width="52" height="52" class="key trans"/>
<text x="0" y="0" class="key trans tap">▽</text>
</g>
<g transform="translate(93, 199) rotate(-5.0)" class="key keypos-24">
<rect rx="6" ry="6" x="-26" y="-26" width="52" height="52" class="key"/>
</g>
<g transform="translate(149, 156) rotate(-3.0)" class="key keypos-25">
<rect rx="6" ry="6" x="-26" y="-26" width="52" height="52" class="key"/>
<text x="0" y="0" class="key tap">RALT</text>
</g>
<g transform="translate(208, 140)" class="key keypos-26">
<rect rx="6" ry="6" x="-26" y="-26" width="52" height="52" class="key"/>
<text x="0" y="0" class="key tap">LALT</text>
</g>
<g transform="translate(264, 154)" class="key keypos-27">
<rect rx="6" ry="6" x="-26" y="-26" width="52" height="52" class="key"/>
<text x="0" y="0" class="key tap">LCTRL</text>
</g>
<g transform="translate(320, 160)" class="key keypos-28">
<rect rx="6" ry="6" x="-26" y="-26" width="52" height="52" class="key"/>
<text x="0" y="0" class="key tap">LGUI</text>
</g>
<g transform="translate(516, 160)" class="key keypos-29">
<rect rx="6" ry="6" x="-26" y="-26" width="52" height="52" class="key"/>
<text x="0" y="0" class="key tap">PREV</text>
</g>
<g transform="translate(572, 154)" class="key keypos-30">
<rect rx="6" ry="6" x="-26" y="-26" width="52" height="52" class="key"/>
<text x="0" y="0" class="key tap">
<tspan x="0" dy="-0.6em">PLAY</tspan><tspan x="0" dy="1.2em">PAUSE</tspan>
</text>
</g>
<g transform="translate(628, 140)" class="key keypos-31">
<rect rx="6" ry="6" x="-26" y="-26" width="52" height="52" class="key"/>
<text x="0" y="0" class="key tap">STOP</text>
</g>
<g transform="translate(687, 156) rotate(3.0)" class="key keypos-32">
<rect rx="6" ry="6" x="-26" y="-26" width="52" height="52" class="key"/>
<text x="0" y="0" class="key tap">NEXT</text>
</g>
<g transform="translate(742, 197) rotate(5.0)" class="key keypos-33">
<rect rx="6" ry="6" x="-26" y="-26" width="52" height="52" class="key"/>
<text x="0" y="0" class="key tap">
<tspan x="0" dy="-0.6em">VOL</tspan><tspan x="0" dy="1.2em">DN</tspan>
</text>
</g>
<g transform="translate(250, 224)" class="key trans keypos-34">
<rect rx="6" ry="6" x="-26" y="-26" width="52" height="52" class="key trans"/>
<text x="0" y="0" class="key trans tap">▽</text>
</g>
<g transform="translate(311, 228) rotate(6.0)" class="key trans keypos-35">
<rect rx="6" ry="6" x="-26" y="-26" width="52" height="52" class="key trans"/>
<text x="0" y="0" class="key trans tap">▽</text>
</g>
<g transform="translate(371, 238) rotate(12.0)" class="key trans keypos-36">
<rect rx="6" ry="6" x="-26" y="-26" width="52" height="52" class="key trans"/>
<text x="0" y="0" class="key trans tap">▽</text>
</g>
<g transform="translate(464, 238) rotate(-12.0)" class="key held keypos-37">
<rect rx="6" ry="6" x="-26" y="-26" width="52" height="52" class="key held"/>
</g>
<g transform="translate(525, 228) rotate(-6.0)" class="key trans keypos-38">
<rect rx="6" ry="6" x="-26" y="-26" width="52" height="52" class="key trans"/>
<text x="0" y="0" class="key trans tap">▽</text>
</g>
<g transform="translate(586, 224)" class="key trans keypos-39">
<rect rx="6" ry="6" x="-26" y="-26" width="52" height="52" class="key trans"/>
<text x="0" y="0" class="key trans tap">▽</text>
</g>
<g class="combo combopos-0">
<rect rx="6" ry="6" x="195" y="43" width="26" height="26" class="combo"/>
<text x="208" y="56" class="combo tap">@</text>
</g>
<g class="combo combopos-1">
<rect rx="6" ry="6" x="131" y="59" width="26" height="26" class="combo"/>
<text x="144" y="72" class="combo tap">`</text>
</g>
<g class="combo combopos-2">
<rect rx="6" ry="6" x="162" y="23" width="26" height="26" class="combo"/>
<text x="175" y="36" class="combo tap">ESC</text>
</g>
<g class="combo combopos-3">
<rect rx="6" ry="6" x="223" y="22" width="26" height="26" class="combo"/>
<text x="236" y="35" class="combo tap">#</text>
</g>
<g class="combo combopos-4">
<rect rx="6" ry="6" x="195" y="99" width="26" height="26" class="combo"/>
<text x="208" y="112" class="combo tap">\</text>
</g>
<g class="combo combopos-5">
<rect rx="6" ry="6" x="165" y="135" width="26" height="26" class="combo"/>
<text x="178" y="148" class="combo tap">Ctl+C</text>
</g>
<g class="combo combopos-6">
<rect rx="6" ry="6" x="223" y="134" width="26" height="26" class="combo"/>
<text x="236" y="147" class="combo tap">Ctl+V</text>
</g>
<g class="combo combopos-7">
<path d="M206,155 l39,-1" class="combo"/>
<path d="M206,155 l-39,1" class="combo"/>
<rect rx="6" ry="6" x="193" y="142" width="26" height="26" class="combo"/>
<text x="206" y="155" class="combo tap">Ctl+X</text>
</g>
<g class="combo combopos-8">
<rect rx="6" ry="6" x="251" y="113" width="26" height="26" class="combo"/>
<text x="264" y="126" class="combo tap">=</text>
</g>
<g class="combo combopos-9">
<rect rx="6" ry="6" x="251" y="57" width="26" height="26" class="combo"/>
<text x="264" y="70" class="combo tap">$</text>
</g>
<g class="combo combopos-10">
<rect rx="6" ry="6" x="307" y="63" width="26" height="26" class="combo"/>
<text x="320" y="76" class="combo tap">%</text>
</g>
<g class="combo combopos-11">
<rect rx="6" ry="6" x="307" y="119" width="26" height="26" class="combo"/>
<text x="320" y="132" class="combo tap">~</text>
</g>
<g class="combo combopos-12">
<rect rx="6" ry="6" x="503" y="63" width="26" height="26" class="combo"/>
<text x="516" y="76" class="combo tap">^</text>
</g>
<g class="combo combopos-13">
<rect rx="6" ry="6" x="503" y="119" width="26" height="26" class="combo"/>
<text x="516" y="132" class="combo tap">_</text>
</g>
<g class="combo combopos-14">
<rect rx="6" ry="6" x="559" y="57" width="26" height="26" class="combo"/>
<text x="572" y="70" class="combo tap">+</text>
</g>
<g class="combo combopos-15">
<rect rx="6" ry="6" x="559" y="113" width="26" height="26" class="combo"/>
<text x="572" y="126" class="combo tap">-</text>
</g>
<g class="combo combopos-16">
<rect rx="6" ry="6" x="647" y="23" width="26" height="26" class="combo"/>
<text x="660" y="36" class="combo tap"><tspan style="font-size: 78%">BACKSPACE</tspan></text>
</g>
<g class="combo combopos-17">
<rect rx="6" ry="6" x="615" y="43" width="26" height="26" class="combo"/>
<text x="628" y="56" class="combo tap">*</text>
</g>
<g class="combo combopos-18">
<rect rx="6" ry="6" x="615" y="99" width="26" height="26" class="combo"/>
<text x="628" y="112" class="combo tap">/</text>
</g>
<g class="combo combopos-19">
<rect rx="6" ry="6" x="678" y="59" width="26" height="26" class="combo"/>
<text x="691" y="72" class="combo tap">|</text>
</g>
<g class="combo combopos-20">
<rect rx="6" ry="6" x="587" y="78" width="26" height="26" class="combo"/>
<text x="600" y="91" class="combo tap">(</text>
</g>
<g class="combo combopos-21">
<rect rx="6" ry="6" x="646" y="79" width="26" height="26" class="combo"/>
<text x="659" y="92" class="combo tap">)</text>
</g>
<g class="combo combopos-22">
<rect rx="6" ry="6" x="644" y="135" width="26" height="26" class="combo"/>
<text x="657" y="148" class="combo tap">]</text>
</g>
<g class="combo combopos-23">
<rect rx="6" ry="6" x="587" y="134" width="26" height="26" class="combo"/>
<text x="600" y="147" class="combo tap">[</text>
</g>
<g class="combo combopos-24">
<rect rx="6" ry="6" x="223" y="78" width="26" height="26" class="combo"/>
<text x="236" y="91" class="combo tap">!</text>
</g>
<g class="combo combopos-25">
<rect rx="6" ry="6" x="164" y="79" width="26" height="26" class="combo"/>
<text x="177" y="92" class="combo tap">TAB</text>
</g>
<g class="combo combopos-26">
<rect rx="6" ry="6" x="587" y="22" width="26" height="26" class="combo"/>
<text x="600" y="35" class="combo tap">&amp;</text>
</g>
</g>
</g>
</svg>
