<svg width="896" height="1038" viewBox="0 0 896 1038" class="keymap" xmlns="http://www.w3.org/2000/svg" xmlns:xlink="http://www.w3.org/1999/xlink">
<defs>/* start glyphs */
<svg id="mdi:keyboard-space">
<svg xmlns="http://www.w3.org/2000/svg" id="mdi-keyboard-space" viewBox="0 0 24 24"><path d="M3 15H5V19H19V15H21V19C21 20.1 20.1 21 19 21H5C3.9 21 3 20.1 3 19V15Z" /></svg>
</svg>
<svg id="phosphor:bold/arrow-fat-up">
<svg xmlns="http://www.w3.org/2000/svg" viewBox="0 0 256 256" fill="currentColor"><path d="M232.48,111.51l-96-96a12,12,0,0,0-17,0l-96,96A12,12,0,0,0,32,132H68v76a20,20,0,0,0,20,20h80a20,20,0,0,0,20-20V132h36a12,12,0,0,0,8.48-20.49ZM176,108a12,12,0,0,0-12,12v84H92V120a12,12,0,0,0-12-12H61l67-67,67,67Z"/></svg>
</svg>
<svg id="phosphor:bold/arrow-line-right">
<svg xmlns="http://www.w3.org/2000/svg" viewBox="0 0 256 256" fill="currentColor"><path d="M184.49,119.51a12,12,0,0,1,0,17l-72,72a12,12,0,0,1-17-17L147,140H32a12,12,0,0,1,0-24H147L95.51,64.49a12,12,0,0,1,17-17ZM216,28a12,12,0,0,0-12,12V216a12,12,0,0,0,24,0V40A12,12,0,0,0,216,28Z"/></svg>
</svg>
<svg id="phosphor:bold/backspace">
<svg xmlns="http://www.w3.org/2000/svg" viewBox="0 0 256 256" fill="currentColor"><path d="M216,36H68.53a20.09,20.09,0,0,0-17.15,9.71L5.71,121.83a12,12,0,0,0,0,12.34l45.67,76.12A20.09,20.09,0,0,0,68.53,220H216a20,20,0,0,0,20-20V56A20,20,0,0,0,216,36Zm-4,160H70.8L30,128,70.8,60H212ZM103.51,143.51,119,128l-15.52-15.51a12,12,0,0,1,17-17L136,111l15.51-15.52a12,12,0,0,1,17,17L153,128l15.52,15.51a12,12,0,0,1-17,17L136,145l-15.51,15.52a12,12,0,0,1-17-17Z"/></svg>
</svg>
<svg id="phosphor:bold/control">
<svg xmlns="http://www.w3.org/2000/svg" viewBox="0 0 256 256" fill="currentColor"><path d="M208.49,128.49a12,12,0,0,1-17,0L128,65,64.49,128.49a12,12,0,0,1-17-17l72-72a12,12,0,0,1,17,0l72,72A12,12,0,0,1,208.49,128.49Z"/></svg>
</svg>
<svg id="phosphor:bold/file-plus">
<svg xmlns="http://www.w3.org/2000/svg" viewBox="0 0 256 256" fill="currentColor"><path d="M216.49,79.51l-56-56A12,12,0,0,0,152,20H56A20,20,0,0,0,36,40V216a20,20,0,0,0,20,20H200a20,20,0,0,0,20-20V88A12,12,0,0,0,216.49,79.51ZM160,57l23,23H160ZM60,212V44h76V92a12,12,0,0,0,12,12h48V212Zm104-60a12,12,0,0,1-12,12H140v12a12,12,0,0,1-24,0V164H104a12,12,0,0,1,0-24h12V128a12,12,0,0,1,24,0v12h12A12,12,0,0,1,164,152Z"/></svg>
</svg>
<svg id="phosphor:bold/file-x">
<svg xmlns="http://www.w3.org/2000/svg" viewBox="0 0 256 256" fill="currentColor"><path d="M216.49,79.52l-56-56A12,12,0,0,0,152,20H56A20,20,0,0,0,36,40V216a20,20,0,0,0,20,20H200a20,20,0,0,0,20-20V88A12,12,0,0,0,216.49,79.52ZM183,80H160V57ZM60,212V44h76V92a12,12,0,0,0,12,12h48V212Zm100.49-75.51L145,152l15.52,15.51a12,12,0,0,1-17,17L128,169l-15.51,15.52a12,12,0,0,1-17-17L111,152,95.51,136.49a12,12,0,1,1,17-17L128,135l15.51-15.52a12,12,0,1,1,17,17Z"/></svg>
</svg>
<svg id="phosphor:bold/files">
<svg xmlns="http://www.w3.org/2000/svg" viewBox="0 0 256 256" fill="currentColor"><path d="M220.49,59.51l-40-40A12,12,0,0,0,172,16H92A20,20,0,0,0,72,36V56H56A20,20,0,0,0,36,76V216a20,20,0,0,0,20,20H164a20,20,0,0,0,20-20V196h20a20,20,0,0,0,20-20V68A12,12,0,0,0,220.49,59.51ZM160,212H60V80h67l33,33Zm40-40H184V108a12,12,0,0,0-3.51-8.49l-40-40A12,12,0,0,0,132,56H96V40h71l33,33Zm-56-28a12,12,0,0,1-12,12H88a12,12,0,0,1,0-24h44A12,12,0,0,1,144,144Zm0,40a12,12,0,0,1-12,12H88a12,12,0,0,1,0-24h44A12,12,0,0,1,144,184Z"/></svg>
</svg>
<svg id="phosphor:bold/x-circle">
<svg xmlns="http://www.w3.org/2000/svg" viewBox="0 0 256 256" fill="currentColor"><path d="M168.49,104.49,145,128l23.52,23.51a12,12,0,0,1-17,17L128,145l-23.51,23.52a12,12,0,0,1-17-17L111,128,87.51,104.49a12,12,0,0,1,17-17L128,111l23.51-23.52a12,12,0,0,1,17,17ZM236,128A108,108,0,1,1,128,20,108.12,108.12,0,0,1,236,128Zm-24,0a84,84,0,1,0-84,84A84.09,84.09,0,0,0,212,128Z"/></svg>
</svg>
</defs>/* end glyphs */
<style>/* inherit to force styles through use tags */
svg path {
    fill: inherit;
}

/* font and background color specifications */
svg.keymap {
    font-family: SFMono-Regular,Consolas,Liberation Mono,Menlo,monospace;
    font-size: 14px;
    font-kerning: normal;
    text-rendering: optimizeLegibility;
    fill: #24292e;
}

/* default key styling */
rect.key {
    fill: #f6f8fa;
}

rect.key, rect.combo {
    stroke: #c9cccf;
    stroke-width: 1;
}

/* default key side styling, only used is draw_key_sides is set */
rect.side {
    filter: brightness(90%);
}

/* color accent for combo boxes */
rect.combo, rect.combo-separate {
    fill: #cdf;
}

/* color accent for held keys */
rect.held, rect.combo.held {
    fill: #fdd;
}

/* color accent for ghost (optional) keys */
rect.ghost, rect.combo.ghost {
    stroke-dasharray: 4, 4;
    stroke-width: 2;
}

text {
    text-anchor: middle;
    dominant-baseline: middle;
}

/* styling for layer labels */
text.label {
    font-weight: bold;
    text-anchor: start;
    stroke: white;
    stroke-width: 4;
    paint-order: stroke;
}

/* styling for optional footer */
text.footer {
    text-anchor: end;
    dominant-baseline: auto;
    stroke: white;
    stroke-width: 4;
    paint-order: stroke;
}

/* styling for combo tap, and key non-tap label text */
text.combo, text.hold, text.shifted, text.left, text.right, text.tl, text.tr, text.bl, text.br {
    font-size: 11px;
}

text.hold, text.bl, text.br {
    text-anchor: middle;
    dominant-baseline: auto;
}

text.shifted, text.tl, text.tr {
    text-anchor: middle;
    dominant-baseline: hanging;
}

text.left, text.tl, text.bl {
    text-anchor: start;
}

text.right, text.tr, text.br {
    text-anchor: end;
}

text.layer-activator {
    text-decoration: underline;
}

/* styling for hold/shifted label text in combo box */
text.combo.hold, text.combo.shifted, text.combo.left, text.combo.right {
    font-size: 8px;
}

/* lighter symbol for transparent keys */
text.trans {
    fill: #7b7e81;
}

/* styling for combo dendrons */
path.combo {
    stroke-width: 1;
    stroke: gray;
    fill: none;
}

/* Start Tabler Icons Cleanup */
/* cannot use height/width with glyphs */
.icon-tabler > path {
    fill: inherit;
    stroke: inherit;
    stroke-width: 2;
}
/* hide tabler's default box */
.icon-tabler > path[stroke="none"][fill="none"] {
    visibility: hidden;
}
/* End Tabler Icons Cleanup */

:root {
  --color-bg: #8ACB88;
  --color-primary: #E4FDE1;
  --color-secondary: #575761;
  --color-accent: #e9ea04;
}

rect.key {
  fill: var(--color-primary);
  stroke-width: 0;
}

rect.key.held {
  fill: var(--color-accent);
}

rect.combo {
  rx: 50%;
  ry: 50%;
  stroke-width: 0;
  fill: var(--color-secondary);
}

.combo path {
  stroke: var(--color-secondary);
  stroke-dasharray: 4 3;
}

.combo text, .combo {
  color: var(--color-primary);
  fill: var(--color-primary);
}

svg.keymap {
  background: var(--color-bg);
  font-family: Roboto, Arial;
}

.footer {
 display: none;
}

.layer-NUM .combo, .layer-NAV .combo {
  display: none;
}

text.label {
  stroke-width: 0;
  font-size: 24px;
}</style>
<g transform="translate(30, 0)" class="layer-BAS">
<text x="0" y="28" class="label" id="BAS">BAS:</text>
<g transform="translate(0, 56)">
<g transform="translate(30, 120) rotate(-5.0)" class="key keypos-0">
<rect rx="6" ry="6" x="-26" y="-26" width="52" height="52" class="key"/>
<text x="0" y="0" class="key tap">ESC</text>
</g>
<g transform="translate(84, 87) rotate(-5.0)" class="key keypos-1">
<rect rx="6" ry="6" x="-26" y="-26" width="52" height="52" class="key"/>
<text x="0" y="0" class="key tap">Q</text>
</g>
<g transform="translate(143, 44) rotate(-3.0)" class="key keypos-2">
<rect rx="6" ry="6" x="-26" y="-26" width="52" height="52" class="key"/>
<text x="0" y="0" class="key tap">W</text>
</g>
<g transform="translate(208, 28)" class="key keypos-3">
<rect rx="6" ry="6" x="-26" y="-26" width="52" height="52" class="key"/>
<text x="0" y="0" class="key tap">E</text>
</g>
<g transform="translate(264, 42)" class="key keypos-4">
<rect rx="6" ry="6" x="-26" y="-26" width="52" height="52" class="key"/>
<text x="0" y="0" class="key tap">R</text>
</g>
<g transform="translate(320, 48)" class="key keypos-5">
<rect rx="6" ry="6" x="-26" y="-26" width="52" height="52" class="key"/>
<text x="0" y="0" class="key tap">T</text>
</g>
<g transform="translate(516, 48)" class="key keypos-6">
<rect rx="6" ry="6" x="-26" y="-26" width="52" height="52" class="key"/>
<text x="0" y="0" class="key tap">Y</text>
</g>
<g transform="translate(572, 42)" class="key keypos-7">
<rect rx="6" ry="6" x="-26" y="-26" width="52" height="52" class="key"/>
<text x="0" y="0" class="key tap">U</text>
</g>
<g transform="translate(628, 28)" class="key keypos-8">
<rect rx="6" ry="6" x="-26" y="-26" width="52" height="52" class="key"/>
<text x="0" y="0" class="key tap">I</text>
</g>
<g transform="translate(693, 44) rotate(3.0)" class="key keypos-9">
<rect rx="6" ry="6" x="-26" y="-26" width="52" height="52" class="key"/>
<text x="0" y="0" class="key tap">O</text>
</g>
<g transform="translate(752, 86) rotate(5.0)" class="key keypos-10">
<rect rx="6" ry="6" x="-26" y="-26" width="52" height="52" class="key"/>
<text x="0" y="0" class="key tap">P</text>
</g>
<g transform="translate(805, 119) rotate(5.0)" class="key keypos-11">
<rect rx="6" ry="6" x="-26" y="-26" width="52" height="52" class="key"/>
<text x="0" y="0" class="key tap"><tspan style="font-size: 78%">BACKSPACE</tspan></text>
</g>
<g transform="translate(35, 176) rotate(-5.0)" class="key keypos-12">
<rect rx="6" ry="6" x="-26" y="-26" width="52" height="52" class="key"/>
<text x="0" y="0" class="key tap">TAB</text>
</g>
<g transform="translate(89, 143) rotate(-5.0)" class="key keypos-13">
<rect rx="6" ry="6" x="-26" y="-26" width="52" height="52" class="key"/>
<text x="0" y="0" class="key tap">A</text>
</g>
<g transform="translate(146, 100) rotate(-3.0)" class="key keypos-14">
<rect rx="6" ry="6" x="-26" y="-26" width="52" height="52" class="key"/>
<text x="0" y="0" class="key tap">S</text>
</g>
<g transform="translate(208, 84)" class="key keypos-15">
<rect rx="6" ry="6" x="-26" y="-26" width="52" height="52" class="key"/>
<text x="0" y="0" class="key tap">D</text>
</g>
<g transform="translate(264, 98)" class="key keypos-16">
<rect rx="6" ry="6" x="-26" y="-26" width="52" height="52" class="key"/>
<text x="0" y="0" class="key tap">F</text>
</g>
<g transform="translate(320, 104)" class="key keypos-17">
<rect rx="6" ry="6" x="-26" y="-26" width="52" height="52" class="key"/>
<text x="0" y="0" class="key tap">G</text>
</g>
<g transform="translate(516, 104)" class="key keypos-18">
<rect rx="6" ry="6" x="-26" y="-26" width="52" height="52" class="key"/>
<text x="0" y="0" class="key tap">H</text>
</g>
<g transform="translate(572, 98)" class="key keypos-19">
<rect rx="6" ry="6" x="-26" y="-26" width="52" height="52" class="key"/>
<text x="0" y="0" class="key tap">J</text>
</g>
<g transform="translate(628, 84)" class="key keypos-20">
<rect rx="6" ry="6" x="-26" y="-26" width="52" height="52" class="key"/>
<text x="0" y="0" class="key tap">K</text>
</g>
<g transform="translate(690, 100) rotate(3.0)" class="key keypos-21">
<rect rx="6" ry="6" x="-26" y="-26" width="52" height="52" class="key"/>
<text x="0" y="0" class="key tap">L</text>
</g>
<g transform="translate(747, 142) rotate(5.0)" class="key keypos-22">
<rect rx="6" ry="6" x="-26" y="-26" width="52" height="52" class="key"/>
<text x="0" y="0" class="key tap">;</text>
</g>
<g transform="translate(800, 174) rotate(5.0)" class="key keypos-23">
<rect rx="6" ry="6" x="-26" y="-26" width="52" height="52" class="key"/>
<text x="0" y="0" class="key tap">RET</text>
</g>
<g transform="translate(93, 199) rotate(-5.0)" class="key keypos-24">
<rect rx="6" ry="6" x="-26" y="-26" width="52" height="52" class="key"/>
<text x="0" y="0" class="key tap">Z</text>
</g>
<g transform="translate(149, 156) rotate(-3.0)" class="key keypos-25">
<rect rx="6" ry="6" x="-26" y="-26" width="52" height="52" class="key"/>
<text x="0" y="0" class="key tap">X</text>
<text x="0" y="24" class="key hold">RALT</text>
</g>
<g transform="translate(208, 140)" class="key keypos-26">
<rect rx="6" ry="6" x="-26" y="-26" width="52" height="52" class="key"/>
<text x="0" y="0" class="key tap">C</text>
<text x="0" y="24" class="key hold">LALT</text>
</g>
<g transform="translate(264, 154)" class="key keypos-27">
<rect rx="6" ry="6" x="-26" y="-26" width="52" height="52" class="key"/>
<text x="0" y="0" class="key tap">V</text>
<use href="#phosphor:bold/control" xlink:href="#phosphor:bold/control" x="-6" y="12" height="12" width="12.0" class="key hold glyph phosphor:bold/control"/>
</g>
<g transform="translate(320, 160)" class="key keypos-28">
<rect rx="6" ry="6" x="-26" y="-26" width="52" height="52" class="key"/>
<text x="0" y="0" class="key tap">B</text>
<text x="0" y="24" class="key hold">GUI</text>
</g>
<g transform="translate(516, 160)" class="key keypos-29">
<rect rx="6" ry="6" x="-26" y="-26" width="52" height="52" class="key"/>
<text x="0" y="0" class="key tap">N</text>
<text x="0" y="24" class="key hold">GUI</text>
</g>
<g transform="translate(572, 154)" class="key keypos-30">
<rect rx="6" ry="6" x="-26" y="-26" width="52" height="52" class="key"/>
<text x="0" y="0" class="key tap">M</text>
<use href="#phosphor:bold/control" xlink:href="#phosphor:bold/control" x="-6" y="12" height="12" width="12.0" class="key hold glyph phosphor:bold/control"/>
</g>
<g transform="translate(628, 140)" class="key keypos-31">
<rect rx="6" ry="6" x="-26" y="-26" width="52" height="52" class="key"/>
<text x="0" y="0" class="key tap">,</text>
<text x="0" y="24" class="key hold">LALT</text>
</g>
<g transform="translate(687, 156) rotate(3.0)" class="key keypos-32">
<rect rx="6" ry="6" x="-26" y="-26" width="52" height="52" class="key"/>
<text x="0" y="0" class="key tap">.</text>
<text x="0" y="24" class="key hold">RALT</text>
</g>
<g transform="translate(742, 197) rotate(5.0)" class="key keypos-33">
<rect rx="6" ry="6" x="-26" y="-26" width="52" height="52" class="key"/>
<text x="0" y="0" class="key tap">&#x27;</text>
</g>
<g transform="translate(250, 224)" class="key keypos-34">
<rect rx="6" ry="6" x="-26" y="-26" width="52" height="52" class="key"/>
<use href="#phosphor:bold/arrow-fat-up" xlink:href="#phosphor:bold/arrow-fat-up" x="-7" y="-7" height="14" width="14.0" class="key tap glyph phosphor:bold/arrow-fat-up"/>
</g>
<g transform="translate(311, 228) rotate(6.0)" class="key keypos-35">
<rect rx="6" ry="6" x="-26" y="-26" width="52" height="52" class="key"/>
<use href="#mdi:keyboard-space" xlink:href="#mdi:keyboard-space" x="-7" y="-7" height="14" width="14.0" class="key tap glyph mdi:keyboard-space"/>
</g>
<g transform="translate(371, 238) rotate(12.0)" class="key keypos-36">
<rect rx="6" ry="6" x="-26" y="-26" width="52" height="52" class="key"/>
<a href="#NUM">
<text x="0" y="0" class="key tap layer-activator">NUM</text>
</a></g>
<g transform="translate(464, 238) rotate(-12.0)" class="key keypos-37">
<rect rx="6" ry="6" x="-26" y="-26" width="52" height="52" class="key"/>
<a href="#NAV">
<text x="0" y="0" class="key tap layer-activator">NAV</text>
</a></g>
<g transform="translate(525, 228) rotate(-6.0)" class="key keypos-38">
<rect rx="6" ry="6" x="-26" y="-26" width="52" height="52" class="key"/>
<text x="0" y="0" class="key tap">RSHFT</text>
</g>
<g transform="translate(586, 224)" class="key keypos-39">
<rect rx="6" ry="6" x="-26" y="-26" width="52" height="52" class="key"/>
<text x="0" y="0" class="key tap">RET</text>
</g>
<g class="combo combopos-0">
<rect rx="6" ry="6" x="195" y="43" width="26" height="26" class="combo"/>
<text x="208" y="56" class="combo tap">@</text>
</g>
<g class="combo combopos-1">
<rect rx="6" ry="6" x="131" y="59" width="26" height="26" class="combo"/>
<text x="144" y="72" class="combo tap">`</text>
</g>
<g class="combo combopos-2">
<rect rx="6" ry="6" x="162" y="23" width="26" height="26" class="combo"/>
<use href="#phosphor:bold/x-circle" xlink:href="#phosphor:bold/x-circle" x="168" y="29" height="14" width="14.0" class="combo tap glyph phosphor:bold/x-circle"/>
</g>
<g class="combo combopos-3">
<rect rx="6" ry="6" x="223" y="22" width="26" height="26" class="combo"/>
<text x="236" y="35" class="combo tap">#</text>
</g>
<g class="combo combopos-4">
<rect rx="6" ry="6" x="195" y="99" width="26" height="26" class="combo"/>
<text x="208" y="112" class="combo tap">\</text>
</g>
<g class="combo combopos-5">
<rect rx="6" ry="6" x="165" y="135" width="26" height="26" class="combo"/>
<use href="#phosphor:bold/files" xlink:href="#phosphor:bold/files" x="171" y="141" height="14" width="14.0" class="combo tap glyph phosphor:bold/files"/>
</g>
<g class="combo combopos-6">
<rect rx="6" ry="6" x="223" y="134" width="26" height="26" class="combo"/>
<use href="#phosphor:bold/file-plus" xlink:href="#phosphor:bold/file-plus" x="229" y="140" height="14" width="14.0" class="combo tap glyph phosphor:bold/file-plus"/>
</g>
<g class="combo combopos-7">
<path d="M206,190 h51 a6.0,6.0 0 0 0 6.0,-6.0 v-11" class="combo"/>
<path d="M206,190 h-51 a6.0,6.0 0 0 1 -6.0,-6.0 v-10" class="combo"/>
<rect rx="6" ry="6" x="193" y="177" width="26" height="26" class="combo"/>
<use href="#phosphor:bold/file-x" xlink:href="#phosphor:bold/file-x" x="199" y="183" height="14" width="14.0" class="combo tap glyph phosphor:bold/file-x"/>
</g>
<g class="combo combopos-8">
<rect rx="6" ry="6" x="251" y="113" width="26" height="26" class="combo"/>
<text x="264" y="126" class="combo tap">=</text>
</g>
<g class="combo combopos-9">
<rect rx="6" ry="6" x="251" y="57" width="26" height="26" class="combo"/>
<text x="264" y="70" class="combo tap">$</text>
</g>
<g class="combo combopos-10">
<rect rx="6" ry="6" x="307" y="63" width="26" height="26" class="combo"/>
<text x="320" y="76" class="combo tap">%</text>
</g>
<g class="combo combopos-11">
<rect rx="6" ry="6" x="307" y="119" width="26" height="26" class="combo"/>
<text x="320" y="132" class="combo tap">~</text>
</g>
<g class="combo combopos-12">
<rect rx="6" ry="6" x="503" y="63" width="26" height="26" class="combo"/>
<text x="516" y="76" class="combo tap">^</text>
</g>
<g class="combo combopos-13">
<rect rx="6" ry="6" x="503" y="119" width="26" height="26" class="combo"/>
<text x="516" y="132" class="combo tap">_</text>
</g>
<g class="combo combopos-14">
<rect rx="6" ry="6" x="559" y="57" width="26" height="26" class="combo"/>
<text x="572" y="70" class="combo tap">+</text>
</g>
<g class="combo combopos-15">
<rect rx="6" ry="6" x="559" y="113" width="26" height="26" class="combo"/>
<text x="572" y="126" class="combo tap">-</text>
</g>
<g class="combo combopos-16">
<rect rx="6" ry="6" x="647" y="23" width="26" height="26" class="combo"/>
<use href="#phosphor:bold/backspace" xlink:href="#phosphor:bold/backspace" x="653" y="29" height="14" width="14.0" class="combo tap glyph phosphor:bold/backspace"/>
</g>
<g class="combo combopos-17">
<rect rx="6" ry="6" x="615" y="43" width="26" height="26" class="combo"/>
<text x="628" y="56" class="combo tap">*</text>
</g>
<g class="combo combopos-18">
<rect rx="6" ry="6" x="615" y="99" width="26" height="26" class="combo"/>
<text x="628" y="112" class="combo tap">/</text>
</g>
<g class="combo combopos-19">
<rect rx="6" ry="6" x="678" y="59" width="26" height="26" class="combo"/>
<text x="691" y="72" class="combo tap">|</text>
</g>
<g class="combo combopos-20">
<rect rx="6" ry="6" x="587" y="78" width="26" height="26" class="combo"/>
<text x="600" y="91" class="combo tap">(</text>
</g>
<g class="combo combopos-21">
<rect rx="6" ry="6" x="646" y="79" width="26" height="26" class="combo"/>
<text x="659" y="92" class="combo tap">)</text>
</g>
<g class="combo combopos-22">
<rect rx="6" ry="6" x="644" y="135" width="26" height="26" class="combo"/>
<text x="657" y="148" class="combo tap">]</text>
</g>
<g class="combo combopos-23">
<rect rx="6" ry="6" x="587" y="134" width="26" height="26" class="combo"/>
<text x="600" y="147" class="combo tap">[</text>
</g>
<g class="combo combopos-24">
<rect rx="6" ry="6" x="223" y="78" width="26" height="26" class="combo"/>
<text x="236" y="91" class="combo tap">!</text>
</g>
<g class="combo combopos-25">
<rect rx="6" ry="6" x="164" y="79" width="26" height="26" class="combo"/>
<use href="#phosphor:bold/arrow-line-right" xlink:href="#phosphor:bold/arrow-line-right" x="170" y="85" height="14" width="14.0" class="combo tap glyph phosphor:bold/arrow-line-right"/>
</g>
<g class="combo combopos-26">
<rect rx="6" ry="6" x="587" y="22" width="26" height="26" class="combo"/>
<text x="600" y="35" class="combo tap">&amp;</text>
</g>
</g>
</g>
<g transform="translate(30, 327)" class="layer-NUM">
<text x="0" y="28" class="label" id="NUM">NUM:</text>
<g transform="translate(0, 56)">
<g transform="translate(30, 120) rotate(-5.0)" class="key trans keypos-0">
<rect rx="6" ry="6" x="-26" y="-26" width="52" height="52" class="key trans"/>
<text x="0" y="0" class="key trans tap">▽</text>
</g>
<g transform="translate(84, 87) rotate(-5.0)" class="key keypos-1">
<rect rx="6" ry="6" x="-26" y="-26" width="52" height="52" class="key"/>
<text x="0" y="0" class="key tap">F10</text>
</g>
<g transform="translate(143, 44) rotate(-3.0)" class="key keypos-2">
<rect rx="6" ry="6" x="-26" y="-26" width="52" height="52" class="key"/>
<text x="0" y="0" class="key tap">F9</text>
</g>
<g transform="translate(208, 28)" class="key keypos-3">
<rect rx="6" ry="6" x="-26" y="-26" width="52" height="52" class="key"/>
<text x="0" y="0" class="key tap">F8</text>
</g>
<g transform="translate(264, 42)" class="key keypos-4">
<rect rx="6" ry="6" x="-26" y="-26" width="52" height="52" class="key"/>
<text x="0" y="0" class="key tap">F7</text>
</g>
<g transform="translate(320, 48)" class="key keypos-5">
<rect rx="6" ry="6" x="-26" y="-26" width="52" height="52" class="key"/>
<text x="0" y="0" class="key tap">
<tspan x="0" dy="-1.2em">Sft</tspan><tspan x="0" dy="1.2em">+</tspan><tspan x="0" dy="1.2em">…</tspan>
</text>
</g>
<g transform="translate(516, 48)" class="key keypos-6">
<rect rx="6" ry="6" x="-26" y="-26" width="52" height="52" class="key"/>
<text x="0" y="0" class="key tap">,</text>
</g>
<g transform="translate(572, 42)" class="key keypos-7">
<rect rx="6" ry="6" x="-26" y="-26" width="52" height="52" class="key"/>
<text x="0" y="0" class="key tap">7</text>
</g>
<g transform="translate(628, 28)" class="key keypos-8">
<rect rx="6" ry="6" x="-26" y="-26" width="52" height="52" class="key"/>
<text x="0" y="0" class="key tap">8</text>
</g>
<g transform="translate(693, 44) rotate(3.0)" class="key keypos-9">
<rect rx="6" ry="6" x="-26" y="-26" width="52" height="52" class="key"/>
<text x="0" y="0" class="key tap">9</text>
</g>
<g transform="translate(752, 86) rotate(5.0)" class="key keypos-10">
<rect rx="6" ry="6" x="-26" y="-26" width="52" height="52" class="key"/>
</g>
<g transform="translate(805, 119) rotate(5.0)" class="key trans keypos-11">
<rect rx="6" ry="6" x="-26" y="-26" width="52" height="52" class="key trans"/>
<text x="0" y="0" class="key trans tap">▽</text>
</g>
<g transform="translate(35, 176) rotate(-5.0)" class="key trans keypos-12">
<rect rx="6" ry="6" x="-26" y="-26" width="52" height="52" class="key trans"/>
<text x="0" y="0" class="key trans tap">▽</text>
</g>
<g transform="translate(89, 143) rotate(-5.0)" class="key keypos-13">
<rect rx="6" ry="6" x="-26" y="-26" width="52" height="52" class="key"/>
<text x="0" y="0" class="key tap">F11</text>
</g>
<g transform="translate(146, 100) rotate(-3.0)" class="key keypos-14">
<rect rx="6" ry="6" x="-26" y="-26" width="52" height="52" class="key"/>
<text x="0" y="0" class="key tap">F6</text>
</g>
<g transform="translate(208, 84)" class="key keypos-15">
<rect rx="6" ry="6" x="-26" y="-26" width="52" height="52" class="key"/>
<text x="0" y="0" class="key tap">F5</text>
</g>
<g transform="translate(264, 98)" class="key keypos-16">
<rect rx="6" ry="6" x="-26" y="-26" width="52" height="52" class="key"/>
<text x="0" y="0" class="key tap">F4</text>
</g>
<g transform="translate(320, 104)" class="key keypos-17">
<rect rx="6" ry="6" x="-26" y="-26" width="52" height="52" class="key"/>
<text x="0" y="0" class="key tap">
<tspan x="0" dy="-1.2em">Alt</tspan><tspan x="0" dy="1.2em">+</tspan><tspan x="0" dy="1.2em">PRNT</tspan>
</text>
</g>
<g transform="translate(516, 104)" class="key keypos-18">
<rect rx="6" ry="6" x="-26" y="-26" width="52" height="52" class="key"/>
<text x="0" y="0" class="key tap">.</text>
</g>
<g transform="translate(572, 98)" class="key keypos-19">
<rect rx="6" ry="6" x="-26" y="-26" width="52" height="52" class="key"/>
<text x="0" y="0" class="key tap">4</text>
</g>
<g transform="translate(628, 84)" class="key keypos-20">
<rect rx="6" ry="6" x="-26" y="-26" width="52" height="52" class="key"/>
<text x="0" y="0" class="key tap">5</text>
</g>
<g transform="translate(690, 100) rotate(3.0)" class="key keypos-21">
<rect rx="6" ry="6" x="-26" y="-26" width="52" height="52" class="key"/>
<text x="0" y="0" class="key tap">6</text>
</g>
<g transform="translate(747, 142) rotate(5.0)" class="key trans keypos-22">
<rect rx="6" ry="6" x="-26" y="-26" width="52" height="52" class="key trans"/>
<text x="0" y="0" class="key trans tap">▽</text>
</g>
<g transform="translate(800, 174) rotate(5.0)" class="key trans keypos-23">
<rect rx="6" ry="6" x="-26" y="-26" width="52" height="52" class="key trans"/>
<text x="0" y="0" class="key trans tap">▽</text>
</g>
<g transform="translate(93, 199) rotate(-5.0)" class="key keypos-24">
<rect rx="6" ry="6" x="-26" y="-26" width="52" height="52" class="key"/>
<text x="0" y="0" class="key tap">F12</text>
</g>
<g transform="translate(149, 156) rotate(-3.0)" class="key keypos-25">
<rect rx="6" ry="6" x="-26" y="-26" width="52" height="52" class="key"/>
<text x="0" y="0" class="key tap">F3</text>
<text x="0" y="24" class="key hold">RALT</text>
</g>
<g transform="translate(208, 140)" class="key keypos-26">
<rect rx="6" ry="6" x="-26" y="-26" width="52" height="52" class="key"/>
<text x="0" y="0" class="key tap">F2</text>
<text x="0" y="24" class="key hold">LALT</text>
</g>
<g transform="translate(264, 154)" class="key keypos-27">
<rect rx="6" ry="6" x="-26" y="-26" width="52" height="52" class="key"/>
<text x="0" y="0" class="key tap">F1</text>
<use href="#phosphor:bold/control" xlink:href="#phosphor:bold/control" x="-6" y="12" height="12" width="12.0" class="key hold glyph phosphor:bold/control"/>
</g>
<g transform="translate(320, 160)" class="key keypos-28">
<rect rx="6" ry="6" x="-26" y="-26" width="52" height="52" class="key"/>
<text x="0" y="0" class="key tap">
<tspan x="0" dy="-0.6em">LEFT</tspan><tspan x="0" dy="1.2em">GUI</tspan>
</text>
</g>
<g transform="translate(516, 160)" class="key keypos-29">
<rect rx="6" ry="6" x="-26" y="-26" width="52" height="52" class="key"/>
<text x="0" y="0" class="key tap">0</text>
<text x="0" y="24" class="key hold">GUI</text>
</g>
<g transform="translate(572, 154)" class="key keypos-30">
<rect rx="6" ry="6" x="-26" y="-26" width="52" height="52" class="key"/>
<text x="0" y="0" class="key tap">1</text>
<use href="#phosphor:bold/control" xlink:href="#phosphor:bold/control" x="-6" y="12" height="12" width="12.0" class="key hold glyph phosphor:bold/control"/>
</g>
<g transform="translate(628, 140)" class="key keypos-31">
<rect rx="6" ry="6" x="-26" y="-26" width="52" height="52" class="key"/>
<text x="0" y="0" class="key tap">2</text>
<text x="0" y="24" class="key hold">LALT</text>
</g>
<g transform="translate(687, 156) rotate(3.0)" class="key keypos-32">
<rect rx="6" ry="6" x="-26" y="-26" width="52" height="52" class="key"/>
<text x="0" y="0" class="key tap">3</text>
<text x="0" y="24" class="key hold">RALT</text>
</g>
<g transform="translate(742, 197) rotate(5.0)" class="key trans keypos-33">
<rect rx="6" ry="6" x="-26" y="-26" width="52" height="52" class="key trans"/>
<text x="0" y="0" class="key trans tap">▽</text>
</g>
<g transform="translate(250, 224)" class="key trans keypos-34">
<rect rx="6" ry="6" x="-26" y="-26" width="52" height="52" class="key trans"/>
<text x="0" y="0" class="key trans tap">▽</text>
</g>
<g transform="translate(311, 228) rotate(6.0)" class="key trans keypos-35">
<rect rx="6" ry="6" x="-26" y="-26" width="52" height="52" class="key trans"/>
<text x="0" y="0" class="key trans tap">▽</text>
</g>
<g transform="translate(371, 238) rotate(12.0)" class="key held keypos-36">
<rect rx="6" ry="6" x="-26" y="-26" width="52" height="52" class="key held"/>
</g>
<g transform="translate(464, 238) rotate(-12.0)" class="key trans keypos-37">
<rect rx="6" ry="6" x="-26" y="-26" width="52" height="52" class="key trans"/>
<text x="0" y="0" class="key trans tap">▽</text>
</g>
<g transform="translate(525, 228) rotate(-6.0)" class="key trans keypos-38">
<rect rx="6" ry="6" x="-26" y="-26" width="52" height="52" class="key trans"/>
<text x="0" y="0" class="key trans tap">▽</text>
</g>
<g transform="translate(586, 224)" class="key trans keypos-39">
<rect rx="6" ry="6" x="-26" y="-26" width="52" height="52" class="key trans"/>
<text x="0" y="0" class="key trans tap">▽</text>
</g>
<g class="combo combopos-0">
<rect rx="6" ry="6" x="195" y="43" width="26" height="26" class="combo"/>
<text x="208" y="56" class="combo tap">@</text>
</g>
<g class="combo combopos-1">
<rect rx="6" ry="6" x="131" y="59" width="26" height="26" class="combo"/>
<text x="144" y="72" class="combo tap">`</text>
</g>
<g class="combo combopos-2">
<rect rx="6" ry="6" x="162" y="23" width="26" height="26" class="combo"/>
<use href="#phosphor:bold/x-circle" xlink:href="#phosphor:bold/x-circle" x="168" y="29" height="14" width="14.0" class="combo tap glyph phosphor:bold/x-circle"/>
</g>
<g class="combo combopos-3">
<rect rx="6" ry="6" x="223" y="22" width="26" height="26" class="combo"/>
<text x="236" y="35" class="combo tap">#</text>
</g>
<g class="combo combopos-4">
<rect rx="6" ry="6" x="195" y="99" width="26" height="26" class="combo"/>
<text x="208" y="112" class="combo tap">\</text>
</g>
<g class="combo combopos-5">
<rect rx="6" ry="6" x="165" y="135" width="26" height="26" class="combo"/>
<use href="#phosphor:bold/files" xlink:href="#phosphor:bold/files" x="171" y="141" height="14" width="14.0" class="combo tap glyph phosphor:bold/files"/>
</g>
<g class="combo combopos-6">
<rect rx="6" ry="6" x="223" y="134" width="26" height="26" class="combo"/>
<use href="#phosphor:bold/file-plus" xlink:href="#phosphor:bold/file-plus" x="229" y="140" height="14" width="14.0" class="combo tap glyph phosphor:bold/file-plus"/>
</g>
<g class="combo combopos-7">
<path d="M206,190 h51 a6.0,6.0 0 0 0 6.0,-6.0 v-11" class="combo"/>
<path d="M206,190 h-51 a6.0,6.0 0 0 1 -6.0,-6.0 v-10" class="combo"/>
<rect rx="6" ry="6" x="193" y="177" width="26" height="26" class="combo"/>
<use href="#phosphor:bold/file-x" xlink:href="#phosphor:bold/file-x" x="199" y="183" height="14" width="14.0" class="combo tap glyph phosphor:bold/file-x"/>
</g>
<g class="combo combopos-8">
<rect rx="6" ry="6" x="251" y="113" width="26" height="26" class="combo"/>
<text x="264" y="126" class="combo tap">=</text>
</g>
<g class="combo combopos-9">
<rect rx="6" ry="6" x="251" y="57" width="26" height="26" class="combo"/>
<text x="264" y="70" class="combo tap">$</text>
</g>
<g class="combo combopos-10">
<rect rx="6" ry="6" x="307" y="63" width="26" height="26" class="combo"/>
<text x="320" y="76" class="combo tap">%</text>
</g>
<g class="combo combopos-11">
<rect rx="6" ry="6" x="307" y="119" width="26" height="26" class="combo"/>
<text x="320" y="132" class="combo tap">~</text>
</g>
<g class="combo combopos-12">
<rect rx="6" ry="6" x="503" y="63" width="26" height="26" class="combo"/>
<text x="516" y="76" class="combo tap">^</text>
</g>
<g class="combo combopos-13">
<rect rx="6" ry="6" x="503" y="119" width="26" height="26" class="combo"/>
<text x="516" y="132" class="combo tap">_</text>
</g>
<g class="combo combopos-14">
<rect rx="6" ry="6" x="559" y="57" width="26" height="26" class="combo"/>
<text x="572" y="70" class="combo tap">+</text>
</g>
<g class="combo combopos-15">
<rect rx="6" ry="6" x="559" y="113" width="26" height="26" class="combo"/>
<text x="572" y="126" class="combo tap">-</text>
</g>
<g class="combo combopos-16">
<rect rx="6" ry="6" x="647" y="23" width="26" height="26" class="combo"/>
<use href="#phosphor:bold/backspace" xlink:href="#phosphor:bold/backspace" x="653" y="29" height="14" width="14.0" class="combo tap glyph phosphor:bold/backspace"/>
</g>
<g class="combo combopos-17">
<rect rx="6" ry="6" x="615" y="43" width="26" height="26" class="combo"/>
<text x="628" y="56" class="combo tap">*</text>
</g>
<g class="combo combopos-18">
<rect rx="6" ry="6" x="615" y="99" width="26" height="26" class="combo"/>
<text x="628" y="112" class="combo tap">/</text>
</g>
<g class="combo combopos-19">
<rect rx="6" ry="6" x="678" y="59" width="26" height="26" class="combo"/>
<text x="691" y="72" class="combo tap">|</text>
</g>
<g class="combo combopos-20">
<rect rx="6" ry="6" x="587" y="78" width="26" height="26" class="combo"/>
<text x="600" y="91" class="combo tap">(</text>
</g>
<g class="combo combopos-21">
<rect rx="6" ry="6" x="646" y="79" width="26" height="26" class="combo"/>
<text x="659" y="92" class="combo tap">)</text>
</g>
<g class="combo combopos-22">
<rect rx="6" ry="6" x="644" y="135" width="26" height="26" class="combo"/>
<text x="657" y="148" class="combo tap">]</text>
</g>
<g class="combo combopos-23">
<rect rx="6" ry="6" x="587" y="134" width="26" height="26" class="combo"/>
<text x="600" y="147" class="combo tap">[</text>
</g>
<g class="combo combopos-24">
<rect rx="6" ry="6" x="223" y="78" width="26" height="26" class="combo"/>
<text x="236" y="91" class="combo tap">!</text>
</g>
<g class="combo combopos-25">
<rect rx="6" ry="6" x="164" y="79" width="26" height="26" class="combo"/>
<use href="#phosphor:bold/arrow-line-right" xlink:href="#phosphor:bold/arrow-line-right" x="170" y="85" height="14" width="14.0" class="combo tap glyph phosphor:bold/arrow-line-right"/>
</g>
<g class="combo combopos-26">
<rect rx="6" ry="6" x="587" y="22" width="26" height="26" class="combo"/>
<text x="600" y="35" class="combo tap">&amp;</text>
</g>
</g>
</g>
<g transform="translate(30, 655)" class="layer-NAV">
<text x="0" y="28" class="label" id="NAV">NAV:</text>
<g transform="translate(0, 56)">
<g transform="translate(30, 120) rotate(-5.0)" class="key trans keypos-0">
<rect rx="6" ry="6" x="-26" y="-26" width="52" height="52" class="key trans"/>
<text x="0" y="0" class="key trans tap">▽</text>
</g>
<g transform="translate(84, 87) rotate(-5.0)" class="key keypos-1">
<rect rx="6" ry="6" x="-26" y="-26" width="52" height="52" class="key"/>
</g>
<g transform="translate(143, 44) rotate(-3.0)" class="key keypos-2">
<rect rx="6" ry="6" x="-26" y="-26" width="52" height="52" class="key"/>
<text x="0" y="0" class="key tap">
<tspan x="0" dy="-1.2em">^</tspan><tspan x="0" dy="1.2em">+</tspan><tspan x="0" dy="1.2em">…</tspan>
</text>
</g>
<g transform="translate(208, 28)" class="key keypos-3">
<rect rx="6" ry="6" x="-26" y="-26" width="52" height="52" class="key"/>
<text x="0" y="0" class="key tap">
<tspan x="0" dy="-1.2em">^</tspan><tspan x="0" dy="1.2em">+</tspan><tspan x="0" dy="1.2em">…</tspan>
</text>
</g>
<g transform="translate(264, 42)" class="key keypos-4">
<rect rx="6" ry="6" x="-26" y="-26" width="52" height="52" class="key"/>
<text x="0" y="0" class="key tap">
<tspan x="0" dy="-1.2em">^</tspan><tspan x="0" dy="1.2em">+</tspan><tspan x="0" dy="1.2em">…</tspan>
</text>
</g>
<g transform="translate(320, 48)" class="key keypos-5">
<rect rx="6" ry="6" x="-26" y="-26" width="52" height="52" class="key"/>
<text x="0" y="0" class="key tap">
<tspan x="0" dy="-1.2em">GUI</tspan><tspan x="0" dy="1.2em">+</tspan><tspan x="0" dy="1.2em">…</tspan>
</text>
</g>
<g transform="translate(516, 48)" class="key keypos-6">
<rect rx="6" ry="6" x="-26" y="-26" width="52" height="52" class="key"/>
<text x="0" y="0" class="key tap">HOME</text>
</g>
<g transform="translate(572, 42)" class="key keypos-7">
<rect rx="6" ry="6" x="-26" y="-26" width="52" height="52" class="key"/>
<text x="0" y="0" class="key tap">
<tspan x="0" dy="-0.6em">PG</tspan><tspan x="0" dy="1.2em">DN</tspan>
</text>
</g>
<g transform="translate(628, 28)" class="key keypos-8">
<rect rx="6" ry="6" x="-26" y="-26" width="52" height="52" class="key"/>
<text x="0" y="0" class="key tap">
<tspan x="0" dy="-0.6em">PG</tspan><tspan x="0" dy="1.2em">UP</tspan>
</text>
</g>
<g transform="translate(693, 44) rotate(3.0)" class="key keypos-9">
<rect rx="6" ry="6" x="-26" y="-26" width="52" height="52" class="key"/>
<text x="0" y="0" class="key tap">END</text>
</g>
<g transform="translate(752, 86) rotate(5.0)" class="key keypos-10">
<rect rx="6" ry="6" x="-26" y="-26" width="52" height="52" class="key"/>
<text x="0" y="0" class="key tap">
<tspan x="0" dy="-0.6em">VOL</tspan><tspan x="0" dy="1.2em">UP</tspan>
</text>
</g>
<g transform="translate(805, 119) rotate(5.0)" class="key trans keypos-11">
<rect rx="6" ry="6" x="-26" y="-26" width="52" height="52" class="key trans"/>
<text x="0" y="0" class="key trans tap">▽</text>
</g>
<g transform="translate(35, 176) rotate(-5.0)" class="key keypos-12">
<rect rx="6" ry="6" x="-26" y="-26" width="52" height="52" class="key"/>
<text x="0" y="0" class="key tap">
<tspan x="0" dy="-1.2em">GUI</tspan><tspan x="0" dy="1.2em">+</tspan><tspan x="0" dy="1.2em">TAB</tspan>
</text>
</g>
<g transform="translate(89, 143) rotate(-5.0)" class="key keypos-13">
<rect rx="6" ry="6" x="-26" y="-26" width="52" height="52" class="key"/>
</g>
<g transform="translate(146, 100) rotate(-3.0)" class="key keypos-14">
<rect rx="6" ry="6" x="-26" y="-26" width="52" height="52" class="key"/>
<text x="0" y="0" class="key tap">
<tspan x="0" dy="-1.2em">GUI</tspan><tspan x="0" dy="1.2em">+</tspan><tspan x="0" dy="1.2em">LEFT</tspan>
</text>
</g>
<g transform="translate(208, 84)" class="key keypos-15">
<rect rx="6" ry="6" x="-26" y="-26" width="52" height="52" class="key"/>
<text x="0" y="0" class="key tap">
<tspan x="0" dy="-1.2em">GUI</tspan><tspan x="0" dy="1.2em">+</tspan><tspan x="0" dy="1.2em">UP</tspan>
</text>
</g>
<g transform="translate(264, 98)" class="key keypos-16">
<rect rx="6" ry="6" x="-26" y="-26" width="52" height="52" class="key"/>
<text x="0" y="0" class="key tap">
<tspan x="0" dy="-1.2em">GUI</tspan><tspan x="0" dy="1.2em">+</tspan><tspan x="0" dy="1.2em">DOWN</tspan>
</text>
</g>
<g transform="translate(320, 104)" class="key keypos-17">
<rect rx="6" ry="6" x="-26" y="-26" width="52" height="52" class="key"/>
<text x="0" y="0" class="key tap">
<tspan x="0" dy="-1.2em">GUI</tspan><tspan x="0" dy="1.2em">+</tspan><tspan x="0" dy="1.2em">RIGHT</tspan>
</text>
</g>
<g transform="translate(516, 104)" class="key keypos-18">
<rect rx="6" ry="6" x="-26" y="-26" width="52" height="52" class="key"/>
<text x="0" y="0" class="key tap">LEFT</text>
</g>
<g transform="translate(572, 98)" class="key keypos-19">
<rect rx="6" ry="6" x="-26" y="-26" width="52" height="52" class="key"/>
<text x="0" y="0" class="key tap">DOWN</text>
</g>
<g transform="translate(628, 84)" class="key keypos-20">
<rect rx="6" ry="6" x="-26" y="-26" width="52" height="52" class="key"/>
<text x="0" y="0" class="key tap">UP</text>
</g>
<g transform="translate(690, 100) rotate(3.0)" class="key keypos-21">
<rect rx="6" ry="6" x="-26" y="-26" width="52" height="52" class="key"/>
<text x="0" y="0" class="key tap">RIGHT</text>
</g>
<g transform="translate(747, 142) rotate(5.0)" class="key keypos-22">
<rect rx="6" ry="6" x="-26" y="-26" width="52" height="52" class="key"/>
<text x="0" y="0" class="key tap">MUTE</text>
</g>
<g transform="translate(800, 174) rotate(5.0)" class="key trans keypos-23">
<rect rx="6" ry="6" x="-26" y="-26" width="52" height="52" class="key trans"/>
<text x="0" y="0" class="key trans tap">▽</text>
</g>
<g transform="translate(93, 199) rotate(-5.0)" class="key keypos-24">
<rect rx="6" ry="6" x="-26" y="-26" width="52" height="52" class="key"/>
</g>
<g transform="translate(149, 156) rotate(-3.0)" class="key keypos-25">
<rect rx="6" ry="6" x="-26" y="-26" width="52" height="52" class="key"/>
<text x="0" y="0" class="key tap">RALT</text>
</g>
<g transform="translate(208, 140)" class="key keypos-26">
<rect rx="6" ry="6" x="-26" y="-26" width="52" height="52" class="key"/>
<text x="0" y="0" class="key tap">LALT</text>
</g>
<g transform="translate(264, 154)" class="key keypos-27">
<rect rx="6" ry="6" x="-26" y="-26" width="52" height="52" class="key"/>
<use href="#phosphor:bold/control" xlink:href="#phosphor:bold/control" x="-7" y="-7" height="14" width="14.0" class="key tap glyph phosphor:bold/control"/>
</g>
<g transform="translate(320, 160)" class="key keypos-28">
<rect rx="6" ry="6" x="-26" y="-26" width="52" height="52" class="key"/>
<text x="0" y="0" class="key tap">GUI</text>
</g>
<g transform="translate(516, 160)" class="key keypos-29">
<rect rx="6" ry="6" x="-26" y="-26" width="52" height="52" class="key"/>
<text x="0" y="0" class="key tap">PREV</text>
</g>
<g transform="translate(572, 154)" class="key keypos-30">
<rect rx="6" ry="6" x="-26" y="-26" width="52" height="52" class="key"/>
<text x="0" y="0" class="key tap">
<tspan x="0" dy="-0.6em">PLAY</tspan><tspan x="0" dy="1.2em">PAUSE</tspan>
</text>
</g>
<g transform="translate(628, 140)" class="key keypos-31">
<rect rx="6" ry="6" x="-26" y="-26" width="52" height="52" class="key"/>
<text x="0" y="0" class="key tap">STOP</text>
</g>
<g transform="translate(687, 156) rotate(3.0)" class="key keypos-32">
<rect rx="6" ry="6" x="-26" y="-26" width="52" height="52" class="key"/>
<text x="0" y="0" class="key tap">NEXT</text>
</g>
<g transform="translate(742, 197) rotate(5.0)" class="key keypos-33">
<rect rx="6" ry="6" x="-26" y="-26" width="52" height="52" class="key"/>
<text x="0" y="0" class="key tap">
<tspan x="0" dy="-0.6em">VOL</tspan><tspan x="0" dy="1.2em">DN</tspan>
</text>
</g>
<g transform="translate(250, 224)" class="key trans keypos-34">
<rect rx="6" ry="6" x="-26" y="-26" width="52" height="52" class="key trans"/>
<text x="0" y="0" class="key trans tap">▽</text>
</g>
<g transform="translate(311, 228) rotate(6.0)" class="key trans keypos-35">
<rect rx="6" ry="6" x="-26" y="-26" width="52" height="52" class="key trans"/>
<text x="0" y="0" class="key trans tap">▽</text>
</g>
<g transform="translate(371, 238) rotate(12.0)" class="key trans keypos-36">
<rect rx="6" ry="6" x="-26" y="-26" width="52" height="52" class="key trans"/>
<text x="0" y="0" class="key trans tap">▽</text>
</g>
<g transform="translate(464, 238) rotate(-12.0)" class="key held keypos-37">
<rect rx="6" ry="6" x="-26" y="-26" width="52" height="52" class="key held"/>
</g>
<g transform="translate(525, 228) rotate(-6.0)" class="key trans keypos-38">
<rect rx="6" ry="6" x="-26" y="-26" width="52" height="52" class="key trans"/>
<text x="0" y="0" class="key trans tap">▽</text>
</g>
<g transform="translate(586, 224)" class="key trans keypos-39">
<rect rx="6" ry="6" x="-26" y="-26" width="52" height="52" class="key trans"/>
<text x="0" y="0" class="key trans tap">▽</text>
</g>
<g class="combo combopos-0">
<rect rx="6" ry="6" x="195" y="43" width="26" height="26" class="combo"/>
<text x="208" y="56" class="combo tap">@</text>
</g>
<g class="combo combopos-1">
<rect rx="6" ry="6" x="131" y="59" width="26" height="26" class="combo"/>
<text x="144" y="72" class="combo tap">`</text>
</g>
<g class="combo combopos-2">
<rect rx="6" ry="6" x="162" y="23" width="26" height="26" class="combo"/>
<use href="#phosphor:bold/x-circle" xlink:href="#phosphor:bold/x-circle" x="168" y="29" height="14" width="14.0" class="combo tap glyph phosphor:bold/x-circle"/>
</g>
<g class="combo combopos-3">
<rect rx="6" ry="6" x="223" y="22" width="26" height="26" class="combo"/>
<text x="236" y="35" class="combo tap">#</text>
</g>
<g class="combo combopos-4">
<rect rx="6" ry="6" x="195" y="99" width="26" height="26" class="combo"/>
<text x="208" y="112" class="combo tap">\</text>
</g>
<g class="combo combopos-5">
<rect rx="6" ry="6" x="165" y="135" width="26" height="26" class="combo"/>
<use href="#phosphor:bold/files" xlink:href="#phosphor:bold/files" x="171" y="141" height="14" width="14.0" class="combo tap glyph phosphor:bold/files"/>
</g>
<g class="combo combopos-6">
<rect rx="6" ry="6" x="223" y="134" width="26" height="26" class="combo"/>
<use href="#phosphor:bold/file-plus" xlink:href="#phosphor:bold/file-plus" x="229" y="140" height="14" width="14.0" class="combo tap glyph phosphor:bold/file-plus"/>
</g>
<g class="combo combopos-7">
<path d="M206,190 h51 a6.0,6.0 0 0 0 6.0,-6.0 v-11" class="combo"/>
<path d="M206,190 h-51 a6.0,6.0 0 0 1 -6.0,-6.0 v-10" class="combo"/>
<rect rx="6" ry="6" x="193" y="177" width="26" height="26" class="combo"/>
<use href="#phosphor:bold/file-x" xlink:href="#phosphor:bold/file-x" x="199" y="183" height="14" width="14.0" class="combo tap glyph phosphor:bold/file-x"/>
</g>
<g class="combo combopos-8">
<rect rx="6" ry="6" x="251" y="113" width="26" height="26" class="combo"/>
<text x="264" y="126" class="combo tap">=</text>
</g>
<g class="combo combopos-9">
<rect rx="6" ry="6" x="251" y="57" width="26" height="26" class="combo"/>
<text x="264" y="70" class="combo tap">$</text>
</g>
<g class="combo combopos-10">
<rect rx="6" ry="6" x="307" y="63" width="26" height="26" class="combo"/>
<text x="320" y="76" class="combo tap">%</text>
</g>
<g class="combo combopos-11">
<rect rx="6" ry="6" x="307" y="119" width="26" height="26" class="combo"/>
<text x="320" y="132" class="combo tap">~</text>
</g>
<g class="combo combopos-12">
<rect rx="6" ry="6" x="503" y="63" width="26" height="26" class="combo"/>
<text x="516" y="76" class="combo tap">^</text>
</g>
<g class="combo combopos-13">
<rect rx="6" ry="6" x="503" y="119" width="26" height="26" class="combo"/>
<text x="516" y="132" class="combo tap">_</text>
</g>
<g class="combo combopos-14">
<rect rx="6" ry="6" x="559" y="57" width="26" height="26" class="combo"/>
<text x="572" y="70" class="combo tap">+</text>
</g>
<g class="combo combopos-15">
<rect rx="6" ry="6" x="559" y="113" width="26" height="26" class="combo"/>
<text x="572" y="126" class="combo tap">-</text>
</g>
<g class="combo combopos-16">
<rect rx="6" ry="6" x="647" y="23" width="26" height="26" class="combo"/>
<use href="#phosphor:bold/backspace" xlink:href="#phosphor:bold/backspace" x="653" y="29" height="14" width="14.0" class="combo tap glyph phosphor:bold/backspace"/>
</g>
<g class="combo combopos-17">
<rect rx="6" ry="6" x="615" y="43" width="26" height="26" class="combo"/>
<text x="628" y="56" class="combo tap">*</text>
</g>
<g class="combo combopos-18">
<rect rx="6" ry="6" x="615" y="99" width="26" height="26" class="combo"/>
<text x="628" y="112" class="combo tap">/</text>
</g>
<g class="combo combopos-19">
<rect rx="6" ry="6" x="678" y="59" width="26" height="26" class="combo"/>
<text x="691" y="72" class="combo tap">|</text>
</g>
<g class="combo combopos-20">
<rect rx="6" ry="6" x="587" y="78" width="26" height="26" class="combo"/>
<text x="600" y="91" class="combo tap">(</text>
</g>
<g class="combo combopos-21">
<rect rx="6" ry="6" x="646" y="79" width="26" height="26" class="combo"/>
<text x="659" y="92" class="combo tap">)</text>
</g>
<g class="combo combopos-22">
<rect rx="6" ry="6" x="644" y="135" width="26" height="26" class="combo"/>
<text x="657" y="148" class="combo tap">]</text>
</g>
<g class="combo combopos-23">
<rect rx="6" ry="6" x="587" y="134" width="26" height="26" class="combo"/>
<text x="600" y="147" class="combo tap">[</text>
</g>
<g class="combo combopos-24">
<rect rx="6" ry="6" x="223" y="78" width="26" height="26" class="combo"/>
<text x="236" y="91" class="combo tap">!</text>
</g>
<g class="combo combopos-25">
<rect rx="6" ry="6" x="164" y="79" width="26" height="26" class="combo"/>
<use href="#phosphor:bold/arrow-line-right" xlink:href="#phosphor:bold/arrow-line-right" x="170" y="85" height="14" width="14.0" class="combo tap glyph phosphor:bold/arrow-line-right"/>
</g>
<g class="combo combopos-26">
<rect rx="6" ry="6" x="587" y="22" width="26" height="26" class="combo"/>
<text x="600" y="35" class="combo tap">&amp;</text>
</g>
</g>
</g>
</svg>
